<svg xmlns="http://www.w3.org/2000/svg">
  <svg id="map" viewBox="0 0 650 650">
    <path d="M472.86 451.82V365h-109.9v109.9h86.82L322.96 622.15 196.14 474.9h86.82V365H173.05v86.82L25.81 325l147.24-126.82V285h109.91V175.1h-86.82L322.96 27.85 449.78 175.1h-86.82V285h109.9v-86.82L620.11 325 472.86 451.82z"/>
  </svg>
  <svg id="reset" viewBox="0 0 650 650">
    <path d="M577.21 267.67A252.32 252.32 0 01369.45 516v118.55L172.3 469.74l197.15-170.17v113.7c62.32-19.06 107.77-77.12 107.77-145.6 0-83.93-68.29-152.22-152.21-152.22s-152.22 68.29-152.22 152.22a150.77 150.77 0 0031.82 93.16l-79 61.27A252.22 252.22 0 01503.35 89.33a250.6 250.6 0 0173.86 178.34z" />
  </svg>
</svg>