<svg id="Layer_1" data-name="Layer 1" xmlns="http://www.w3.org/2000/svg" viewBox="0 0 1006.24 490.75"><defs><style>.cls-1{fill:#fff;}.cls-2{fill:#cb0c5a;}.cls-3{fill:#0f528c;}.cls-4{fill:#eb649f;}.cls-5{fill:#22a0b6;}.cls-6{isolation:isolate;}</style></defs><g id="layer1"><g id="rect4329-0"><path class="cls-1" d="M57.08,7.92v49.2H7.88V7.92h49.2m3.51-6H4.37A2.48,2.48,0,0,0,1.88,4.41V60.63a2.49,2.49,0,0,0,2.49,2.49H60.59a2.49,2.49,0,0,0,2.49-2.49V4.41a2.48,2.48,0,0,0-2.49-2.49Z" transform="translate(-1.88 -1.92)"/></g><g id="use7991"><path class="cls-1" d="M192.08,7.92v49.2h-49.2V7.92h49.2m3.51-6H139.37a2.48,2.48,0,0,0-2.49,2.49V60.63a2.49,2.49,0,0,0,2.49,2.49h56.22a2.49,2.49,0,0,0,2.49-2.49V4.41a2.48,2.48,0,0,0-2.49-2.49Z" transform="translate(-1.88 -1.92)"/></g><g id="use7993"><path class="cls-1" d="M259.58,7.92v49.2h-49.2V7.92h49.2m3.51-6H206.87a2.49,2.49,0,0,0-2.49,2.49V60.63a2.5,2.5,0,0,0,2.49,2.49h56.22a2.49,2.49,0,0,0,2.49-2.49V4.41a2.48,2.48,0,0,0-2.49-2.49Z" transform="translate(-1.88 -1.92)"/></g><g id="use7995"><path class="cls-1" d="M327.09,7.92v49.2H277.88V7.92h49.21m3.51-6H274.38a2.49,2.49,0,0,0-2.5,2.49V60.63a2.5,2.5,0,0,0,2.5,2.49H330.6a2.5,2.5,0,0,0,2.49-2.49V4.41a2.49,2.49,0,0,0-2.49-2.49Z" transform="translate(-1.88 -1.92)"/></g><g id="use7997"><path class="cls-1" d="M394.59,7.92v49.2h-49.2V7.92h49.2m3.51-6H341.88a2.48,2.48,0,0,0-2.49,2.49V60.63a2.49,2.49,0,0,0,2.49,2.49H398.1a2.49,2.49,0,0,0,2.49-2.49V4.41a2.48,2.48,0,0,0-2.49-2.49Z" transform="translate(-1.88 -1.92)"/></g><g id="use7999"><path class="cls-1" d="M495.83,7.92v49.2h-49.2V7.92h49.2m3.51-6H443.12a2.48,2.48,0,0,0-2.49,2.49V60.63a2.49,2.49,0,0,0,2.49,2.49h56.22a2.49,2.49,0,0,0,2.49-2.49V4.41a2.48,2.48,0,0,0-2.49-2.49Z" transform="translate(-1.88 -1.92)"/></g><g id="use8001"><path class="cls-1" d="M563.33,7.92v49.2h-49.2V7.92h49.2m3.51-6H510.62a2.49,2.49,0,0,0-2.49,2.49V60.63a2.5,2.5,0,0,0,2.49,2.49h56.22a2.49,2.49,0,0,0,2.49-2.49V4.41a2.48,2.48,0,0,0-2.49-2.49Z" transform="translate(-1.88 -1.92)"/></g><g id="use8003"><path class="cls-1" d="M630.84,7.92v49.2H581.63V7.92h49.21m3.51-6H578.13a2.49,2.49,0,0,0-2.5,2.49V60.63a2.5,2.5,0,0,0,2.5,2.49h56.22a2.5,2.5,0,0,0,2.49-2.49V4.41a2.49,2.49,0,0,0-2.49-2.49Z" transform="translate(-1.88 -1.92)"/></g><g id="use8005"><path class="cls-1" d="M698.34,7.92v49.2h-49.2V7.92h49.2m3.51-6H645.63a2.48,2.48,0,0,0-2.49,2.49V60.63a2.49,2.49,0,0,0,2.49,2.49h56.22a2.49,2.49,0,0,0,2.49-2.49V4.41a2.48,2.48,0,0,0-2.49-2.49Z" transform="translate(-1.88 -1.92)"/></g><g id="use8007"><path class="cls-1" d="M799.58,7.92v49.2h-49.2V7.92h49.2m3.51-6H746.87a2.48,2.48,0,0,0-2.49,2.49V60.63a2.49,2.49,0,0,0,2.49,2.49h56.22a2.49,2.49,0,0,0,2.49-2.49V4.41a2.48,2.48,0,0,0-2.49-2.49Z" transform="translate(-1.88 -1.92)"/></g><g id="use8009"><path class="cls-1" d="M867.08,7.92v49.2h-49.2V7.92h49.2m3.51-6H814.37a2.49,2.49,0,0,0-2.49,2.49V60.63a2.5,2.5,0,0,0,2.49,2.49h56.22a2.49,2.49,0,0,0,2.49-2.49V4.41a2.48,2.48,0,0,0-2.49-2.49Z" transform="translate(-1.88 -1.92)"/></g><g id="use8011"><path class="cls-1" d="M934.59,7.92v49.2h-49.2V7.92h49.2m3.51-6H881.88a2.48,2.48,0,0,0-2.49,2.49V60.63a2.49,2.49,0,0,0,2.49,2.49H938.1a2.5,2.5,0,0,0,2.49-2.49V4.41a2.49,2.49,0,0,0-2.49-2.49Z" transform="translate(-1.88 -1.92)"/></g><g id="use8013"><path class="cls-1" d="M1002.09,7.92v49.2h-49.2V7.92h49.2m3.51-6H949.38a2.48,2.48,0,0,0-2.49,2.49V60.63a2.49,2.49,0,0,0,2.49,2.49h56.22a2.49,2.49,0,0,0,2.49-2.49V4.41a2.48,2.48,0,0,0-2.49-2.49Z" transform="translate(-1.88 -1.92)"/></g><g id="rect8063"><path class="cls-1" d="M57.08,93.06v49.2H7.88V93.06h49.2m3.51-6H4.37a2.48,2.48,0,0,0-2.49,2.49v56.22a2.49,2.49,0,0,0,2.49,2.49H60.59a2.49,2.49,0,0,0,2.49-2.49V89.55a2.48,2.48,0,0,0-2.49-2.49Z" transform="translate(-1.88 -1.92)"/></g><g id="use8067"><path class="cls-1" d="M124.58,93.06v49.2H75.38V93.06h49.2m3.51-6H71.87a2.49,2.49,0,0,0-2.49,2.49v56.22a2.5,2.5,0,0,0,2.49,2.49h56.22a2.49,2.49,0,0,0,2.49-2.49V89.55a2.48,2.48,0,0,0-2.49-2.49Z" transform="translate(-1.88 -1.92)"/></g><g id="use8069"><path class="cls-1" d="M192.09,93.06v49.2H142.88V93.06h49.21m3.51-6H139.38a2.49,2.49,0,0,0-2.5,2.49v56.22a2.5,2.5,0,0,0,2.5,2.49H195.6a2.5,2.5,0,0,0,2.49-2.49V89.55a2.49,2.49,0,0,0-2.49-2.49Z" transform="translate(-1.88 -1.92)"/></g><g id="use8071"><path class="cls-1" d="M259.59,93.06v49.2h-49.2V93.06h49.2m3.51-6H206.88a2.48,2.48,0,0,0-2.49,2.49v56.22a2.49,2.49,0,0,0,2.49,2.49H263.1a2.49,2.49,0,0,0,2.49-2.49V89.55a2.48,2.48,0,0,0-2.49-2.49Z" transform="translate(-1.88 -1.92)"/></g><g id="use8073"><path class="cls-1" d="M327.09,93.06v49.2h-49.2V93.06h49.2m3.51-6H274.38a2.49,2.49,0,0,0-2.49,2.49v56.22a2.5,2.5,0,0,0,2.49,2.49H330.6a2.49,2.49,0,0,0,2.49-2.49V89.55a2.48,2.48,0,0,0-2.49-2.49Z" transform="translate(-1.88 -1.92)"/></g><g id="use8075"><path class="cls-1" d="M394.6,93.06v49.2H345.39V93.06H394.6m3.5-6H341.89a2.49,2.49,0,0,0-2.5,2.49v56.22a2.5,2.5,0,0,0,2.5,2.49H398.1a2.5,2.5,0,0,0,2.5-2.49V89.55a2.49,2.49,0,0,0-2.5-2.49Z" transform="translate(-1.88 -1.92)"/></g><g id="use8077"><path class="cls-1" d="M462.1,93.06v49.2H412.9V93.06h49.2m3.51-6H409.39a2.48,2.48,0,0,0-2.49,2.49v56.22a2.49,2.49,0,0,0,2.49,2.49h56.22a2.5,2.5,0,0,0,2.49-2.49V89.55a2.49,2.49,0,0,0-2.49-2.49Z" transform="translate(-1.88 -1.92)"/></g><g id="use8079"><path class="cls-1" d="M529.6,93.06v49.2H480.4V93.06h49.2m3.51-6H476.89a2.49,2.49,0,0,0-2.49,2.49v56.22a2.5,2.5,0,0,0,2.49,2.49h56.22a2.49,2.49,0,0,0,2.49-2.49V89.55a2.48,2.48,0,0,0-2.49-2.49Z" transform="translate(-1.88 -1.92)"/></g><g id="use8081"><path class="cls-1" d="M597.11,93.06v49.2H547.9V93.06h49.21m3.5-6H544.4a2.49,2.49,0,0,0-2.5,2.49v56.22a2.5,2.5,0,0,0,2.5,2.49h56.21a2.5,2.5,0,0,0,2.5-2.49V89.55a2.49,2.49,0,0,0-2.5-2.49Z" transform="translate(-1.88 -1.92)"/></g><g id="use8083"><path class="cls-1" d="M664.61,93.06v49.2h-49.2V93.06h49.2m3.51-6H611.9a2.48,2.48,0,0,0-2.49,2.49v56.22a2.49,2.49,0,0,0,2.49,2.49h56.22a2.5,2.5,0,0,0,2.49-2.49V89.55a2.49,2.49,0,0,0-2.49-2.49Z" transform="translate(-1.88 -1.92)"/></g><g id="use8085"><path class="cls-1" d="M732.11,93.06v49.2h-49.2V93.06h49.2m3.51-6H679.4a2.48,2.48,0,0,0-2.49,2.49v56.22a2.49,2.49,0,0,0,2.49,2.49h56.22a2.49,2.49,0,0,0,2.49-2.49V89.55a2.48,2.48,0,0,0-2.49-2.49Z" transform="translate(-1.88 -1.92)"/></g><g id="use8087"><path class="cls-1" d="M799.61,93.06v49.2h-49.2V93.06h49.2m3.51-6H746.9a2.49,2.49,0,0,0-2.49,2.49v56.22a2.5,2.5,0,0,0,2.49,2.49h56.22a2.49,2.49,0,0,0,2.49-2.49V89.55a2.48,2.48,0,0,0-2.49-2.49Z" transform="translate(-1.88 -1.92)"/></g><g id="use8089"><path class="cls-1" d="M867.12,93.06v49.2h-49.2V93.06h49.2m3.51-6H814.41a2.48,2.48,0,0,0-2.49,2.49v56.22a2.49,2.49,0,0,0,2.49,2.49h56.22a2.5,2.5,0,0,0,2.49-2.49V89.55a2.49,2.49,0,0,0-2.49-2.49Z" transform="translate(-1.88 -1.92)"/></g><g id="use8091"><path class="cls-1" d="M1002.12,93.06v49.2H885.42V93.06h116.7m3.51-6H881.91a2.48,2.48,0,0,0-2.49,2.49v56.22a2.49,2.49,0,0,0,2.49,2.49h123.72a2.49,2.49,0,0,0,2.49-2.49V89.55a2.48,2.48,0,0,0-2.49-2.49Z" transform="translate(-1.88 -1.92)"/></g><g id="use8121"><path class="cls-1" d="M91.82,160.56v49.2H7.88v-49.2H91.82m3.51-6h-91a2.48,2.48,0,0,0-2.49,2.49v56.22a2.49,2.49,0,0,0,2.49,2.49h91a2.49,2.49,0,0,0,2.49-2.49V157.05a2.48,2.48,0,0,0-2.49-2.49Z" transform="translate(-1.88 -1.92)"/></g><g id="use8123"><rect class="cls-2" x="105.24" y="155.64" width="55.2" height="55.2"/><path class="cls-1" d="M159.32,160.56v49.2h-49.2v-49.2h49.2m3.51-6H106.61a2.48,2.48,0,0,0-2.49,2.49v56.22a2.49,2.49,0,0,0,2.49,2.49h56.22a2.49,2.49,0,0,0,2.49-2.49V157.05a2.48,2.48,0,0,0-2.49-2.49Z" transform="translate(-1.88 -1.92)"/></g><g id="use8125"><rect class="cls-2" x="172.74" y="155.64" width="55.2" height="55.2"/><path class="cls-1" d="M226.82,160.56v49.2h-49.2v-49.2h49.2m3.51-6H174.11a2.49,2.49,0,0,0-2.49,2.49v56.22a2.5,2.5,0,0,0,2.49,2.49h56.22a2.49,2.49,0,0,0,2.49-2.49V157.05a2.48,2.48,0,0,0-2.49-2.49Z" transform="translate(-1.88 -1.92)"/></g><g id="use8127"><rect class="cls-3" x="240.25" y="155.64" width="55.2" height="55.2"/><path class="cls-1" d="M294.33,160.56v49.2H245.12v-49.2h49.21m3.51-6H241.62a2.49,2.49,0,0,0-2.5,2.49v56.22a2.5,2.5,0,0,0,2.5,2.49h56.22a2.5,2.5,0,0,0,2.49-2.49V157.05a2.49,2.49,0,0,0-2.49-2.49Z" transform="translate(-1.88 -1.92)"/></g><g id="use8129"><rect class="cls-3" x="307.75" y="155.64" width="55.2" height="55.2"/><path class="cls-1" d="M361.83,160.56v49.2h-49.2v-49.2h49.2m3.51-6H309.12a2.48,2.48,0,0,0-2.49,2.49v56.22a2.49,2.49,0,0,0,2.49,2.49h56.22a2.49,2.49,0,0,0,2.49-2.49V157.05a2.48,2.48,0,0,0-2.49-2.49Z" transform="translate(-1.88 -1.92)"/></g><g id="use8131"><rect class="cls-3" x="375.25" y="155.64" width="55.2" height="55.2"/><path class="cls-1" d="M429.33,160.56v49.2h-49.2v-49.2h49.2m3.51-6H376.62a2.49,2.49,0,0,0-2.49,2.49v56.22a2.5,2.5,0,0,0,2.49,2.49h56.22a2.49,2.49,0,0,0,2.49-2.49V157.05a2.48,2.48,0,0,0-2.49-2.49Z" transform="translate(-1.88 -1.92)"/></g><g id="use8133"><rect class="cls-3" x="442.76" y="155.64" width="55.2" height="55.2"/><path class="cls-1" d="M496.84,160.56v49.2H447.63v-49.2h49.21m3.5-6H444.13a2.49,2.49,0,0,0-2.5,2.49v56.22a2.5,2.5,0,0,0,2.5,2.49h56.21a2.5,2.5,0,0,0,2.5-2.49V157.05a2.49,2.49,0,0,0-2.5-2.49Z" transform="translate(-1.88 -1.92)"/></g><g id="use8135"><rect class="cls-3" x="510.26" y="155.64" width="55.2" height="55.2"/><path class="cls-1" d="M564.34,160.56v49.2h-49.2v-49.2h49.2m3.51-6H511.63a2.48,2.48,0,0,0-2.49,2.49v56.22a2.49,2.49,0,0,0,2.49,2.49h56.22a2.5,2.5,0,0,0,2.49-2.49V157.05a2.49,2.49,0,0,0-2.49-2.49Z" transform="translate(-1.88 -1.92)"/></g><g id="use8137"><rect class="cls-4" x="577.76" y="155.64" width="55.2" height="55.2"/><path class="cls-1" d="M631.84,160.56v49.2h-49.2v-49.2h49.2m3.51-6H579.13a2.49,2.49,0,0,0-2.49,2.49v56.22a2.5,2.5,0,0,0,2.49,2.49h56.22a2.49,2.49,0,0,0,2.49-2.49V157.05a2.48,2.48,0,0,0-2.49-2.49Z" transform="translate(-1.88 -1.92)"/></g><g id="use8139"><rect class="cls-4" x="645.26" y="155.64" width="55.2" height="55.2"/><path class="cls-1" d="M699.35,160.56v49.2H650.14v-49.2h49.21m3.5-6H646.64a2.49,2.49,0,0,0-2.5,2.49v56.22a2.5,2.5,0,0,0,2.5,2.49h56.21a2.5,2.5,0,0,0,2.5-2.49V157.05a2.49,2.49,0,0,0-2.5-2.49Z" transform="translate(-1.88 -1.92)"/></g><g id="use8141"><rect class="cls-4" x="712.77" y="155.64" width="55.2" height="55.2"/><path class="cls-1" d="M766.85,160.56v49.2h-49.2v-49.2h49.2m3.51-6H714.14a2.48,2.48,0,0,0-2.49,2.49v56.22a2.49,2.49,0,0,0,2.49,2.49h56.22a2.5,2.5,0,0,0,2.49-2.49V157.05a2.49,2.49,0,0,0-2.49-2.49Z" transform="translate(-1.88 -1.92)"/></g><g id="use8143"><path class="cls-1" d="M834.35,160.56v49.2h-49.2v-49.2h49.2m3.51-6H781.64a2.48,2.48,0,0,0-2.49,2.49v56.22a2.49,2.49,0,0,0,2.49,2.49h56.22a2.49,2.49,0,0,0,2.49-2.49V157.05a2.48,2.48,0,0,0-2.49-2.49Z" transform="translate(-1.88 -1.92)"/></g><g id="use8145"><path class="cls-1" d="M901.86,160.56v49.2H852.65v-49.2h49.21m3.5-6H849.14a2.49,2.49,0,0,0-2.49,2.49v56.22a2.5,2.5,0,0,0,2.49,2.49h56.22a2.5,2.5,0,0,0,2.5-2.49V157.05a2.49,2.49,0,0,0-2.5-2.49Z" transform="translate(-1.88 -1.92)"/></g><g id="use8147"><path class="cls-1" d="M1002.12,160.56v49.2h-82v-49.2h82m3.51-6h-89a2.48,2.48,0,0,0-2.49,2.49v56.22a2.49,2.49,0,0,0,2.49,2.49h89a2.5,2.5,0,0,0,2.49-2.49V157.05a2.49,2.49,0,0,0-2.49-2.49Z" transform="translate(-1.88 -1.92)"/></g><g id="rect8177"><path class="cls-1" d="M108.47,228.06v49.2H7.88v-49.2H108.47m3.51-6H4.37a2.48,2.48,0,0,0-2.49,2.49v56.22a2.49,2.49,0,0,0,2.49,2.49H112a2.49,2.49,0,0,0,2.49-2.49V224.55a2.48,2.48,0,0,0-2.49-2.49Z" transform="translate(-1.88 -1.92)"/></g><g id="rect8179"><rect class="cls-2" x="121.89" y="223.14" width="55.2" height="55.2"/><path class="cls-1" d="M176,228.06v49.2h-49.2v-49.2H176m3.51-6H123.26a2.48,2.48,0,0,0-2.49,2.49v56.22a2.49,2.49,0,0,0,2.49,2.49h56.22a2.49,2.49,0,0,0,2.49-2.49V224.55a2.48,2.48,0,0,0-2.49-2.49Z" transform="translate(-1.88 -1.92)"/></g><g id="use8183"><rect class="cls-2" x="189.39" y="223.14" width="55.2" height="55.2"/><path class="cls-1" d="M243.47,228.06v49.2h-49.2v-49.2h49.2m3.51-6H190.76a2.49,2.49,0,0,0-2.49,2.49v56.22a2.5,2.5,0,0,0,2.49,2.49H247a2.49,2.49,0,0,0,2.49-2.49V224.55a2.48,2.48,0,0,0-2.49-2.49Z" transform="translate(-1.88 -1.92)"/></g><g id="use8185"><rect class="cls-3" x="256.9" y="223.14" width="55.2" height="55.2"/><path class="cls-1" d="M311,228.06v49.2H261.77v-49.2H311m3.51-6H258.27a2.49,2.49,0,0,0-2.5,2.49v56.22a2.5,2.5,0,0,0,2.5,2.49h56.22a2.5,2.5,0,0,0,2.49-2.49V224.55a2.49,2.49,0,0,0-2.49-2.49Z" transform="translate(-1.88 -1.92)"/></g><g id="use8187"><rect class="cls-3" x="324.4" y="223.14" width="55.2" height="55.2"/><path class="cls-1" d="M378.48,228.06v49.2h-49.2v-49.2h49.2m3.51-6H325.77a2.48,2.48,0,0,0-2.49,2.49v56.22a2.49,2.49,0,0,0,2.49,2.49H382a2.49,2.49,0,0,0,2.49-2.49V224.55a2.48,2.48,0,0,0-2.49-2.49Z" transform="translate(-1.88 -1.92)"/></g><g id="use8189"><rect class="cls-5" x="391.9" y="223.14" width="55.2" height="55.2"/><path class="cls-1" d="M446,228.06v49.2h-49.2v-49.2H446m3.51-6H393.27a2.49,2.49,0,0,0-2.49,2.49v56.22a2.5,2.5,0,0,0,2.49,2.49h56.22a2.49,2.49,0,0,0,2.49-2.49V224.55a2.48,2.48,0,0,0-2.49-2.49Z" transform="translate(-1.88 -1.92)"/></g><g id="use8191"><rect class="cls-5" x="459.4" y="223.14" width="55.2" height="55.2"/><path class="cls-1" d="M513.49,228.06v49.2H464.28v-49.2h49.21m3.5-6H460.78a2.49,2.49,0,0,0-2.5,2.49v56.22a2.5,2.5,0,0,0,2.5,2.49H517a2.5,2.5,0,0,0,2.5-2.49V224.55a2.49,2.49,0,0,0-2.5-2.49Z" transform="translate(-1.88 -1.92)"/></g><g id="use8193"><rect class="cls-5" x="526.91" y="223.14" width="55.2" height="55.2"/><path class="cls-1" d="M581,228.06v49.2h-49.2v-49.2H581m3.51-6H528.28a2.48,2.48,0,0,0-2.49,2.49v56.22a2.49,2.49,0,0,0,2.49,2.49H584.5a2.5,2.5,0,0,0,2.49-2.49V224.55a2.49,2.49,0,0,0-2.49-2.49Z" transform="translate(-1.88 -1.92)"/></g><g id="use8195"><rect class="cls-4" x="594.41" y="223.14" width="55.2" height="55.2"/><path class="cls-1" d="M648.49,228.06v49.2h-49.2v-49.2h49.2m3.51-6H595.78a2.49,2.49,0,0,0-2.49,2.49v56.22a2.5,2.5,0,0,0,2.49,2.49H652a2.49,2.49,0,0,0,2.49-2.49V224.55a2.48,2.48,0,0,0-2.49-2.49Z" transform="translate(-1.88 -1.92)"/></g><g id="use8197"><rect class="cls-4" x="661.91" y="223.14" width="55.2" height="55.2"/><path class="cls-1" d="M716,228.06v49.2H666.79v-49.2H716m3.5-6H663.29a2.49,2.49,0,0,0-2.5,2.49v56.22a2.5,2.5,0,0,0,2.5,2.49H719.5a2.5,2.5,0,0,0,2.5-2.49V224.55a2.49,2.49,0,0,0-2.5-2.49Z" transform="translate(-1.88 -1.92)"/></g><g id="use8199"><path class="cls-1" d="M783.5,228.06v49.2H734.3v-49.2h49.2m3.51-6H730.79a2.48,2.48,0,0,0-2.49,2.49v56.22a2.49,2.49,0,0,0,2.49,2.49H787a2.5,2.5,0,0,0,2.49-2.49V224.55a2.49,2.49,0,0,0-2.49-2.49Z" transform="translate(-1.88 -1.92)"/></g><g id="use8201"><path class="cls-1" d="M851,228.06v49.2H801.8v-49.2H851m3.51-6H798.29a2.49,2.49,0,0,0-2.49,2.49v56.22a2.5,2.5,0,0,0,2.49,2.49h56.22a2.49,2.49,0,0,0,2.49-2.49V224.55a2.48,2.48,0,0,0-2.49-2.49Z" transform="translate(-1.88 -1.92)"/></g><g id="use8203"><path class="cls-1" d="M1002.12,228.06v49.2H869.3v-49.2h132.82m3.5-6H865.79a2.49,2.49,0,0,0-2.49,2.49v56.22a2.5,2.5,0,0,0,2.49,2.49h139.83a2.5,2.5,0,0,0,2.5-2.49V224.55a2.49,2.49,0,0,0-2.5-2.49Z" transform="translate(-1.88 -1.92)"/></g><g id="rect8249"><path class="cls-1" d="M142.22,295.56v49.2H7.88v-49.2H142.22m3.51-6H4.37a2.48,2.48,0,0,0-2.49,2.49v56.22a2.49,2.49,0,0,0,2.49,2.49H145.73a2.49,2.49,0,0,0,2.49-2.49V292.05a2.48,2.48,0,0,0-2.49-2.49Z" transform="translate(-1.88 -1.92)"/></g><g id="use8275"><rect class="cls-2" x="155.64" y="290.64" width="55.2" height="55.2"/><path class="cls-1" d="M209.72,295.56v49.2h-49.2v-49.2h49.2m3.51-6H157a2.48,2.48,0,0,0-2.49,2.49v56.22a2.49,2.49,0,0,0,2.49,2.49h56.22a2.49,2.49,0,0,0,2.49-2.49V292.05a2.48,2.48,0,0,0-2.49-2.49Z" transform="translate(-1.88 -1.92)"/></g><g id="use8277"><rect class="cls-2" x="223.14" y="290.64" width="55.2" height="55.2"/><path class="cls-1" d="M277.22,295.56v49.2H228v-49.2h49.2m3.51-6H224.51a2.49,2.49,0,0,0-2.49,2.49v56.22a2.5,2.5,0,0,0,2.49,2.49h56.22a2.49,2.49,0,0,0,2.49-2.49V292.05a2.48,2.48,0,0,0-2.49-2.49Z" transform="translate(-1.88 -1.92)"/></g><g id="use8279"><rect class="cls-5" x="290.65" y="290.64" width="55.2" height="55.2"/><path class="cls-1" d="M344.73,295.56v49.2H295.52v-49.2h49.21m3.51-6H292a2.49,2.49,0,0,0-2.5,2.49v56.22a2.5,2.5,0,0,0,2.5,2.49h56.22a2.5,2.5,0,0,0,2.49-2.49V292.05a2.49,2.49,0,0,0-2.49-2.49Z" transform="translate(-1.88 -1.92)"/></g><g id="use8281"><rect class="cls-5" x="358.15" y="290.64" width="55.2" height="55.2"/><path class="cls-1" d="M412.23,295.56v49.2H363v-49.2h49.2m3.51-6H359.52a2.48,2.48,0,0,0-2.49,2.49v56.22a2.49,2.49,0,0,0,2.49,2.49h56.22a2.49,2.49,0,0,0,2.49-2.49V292.05a2.48,2.48,0,0,0-2.49-2.49Z" transform="translate(-1.88 -1.92)"/></g><g id="use8283"><rect class="cls-5" x="425.65" y="290.64" width="55.2" height="55.2"/><path class="cls-1" d="M479.73,295.56v49.2h-49.2v-49.2h49.2m3.51-6H427a2.49,2.49,0,0,0-2.49,2.49v56.22a2.5,2.5,0,0,0,2.49,2.49h56.22a2.49,2.49,0,0,0,2.49-2.49V292.05a2.48,2.48,0,0,0-2.49-2.49Z" transform="translate(-1.88 -1.92)"/></g><g id="use8285"><rect class="cls-5" x="493.15" y="290.64" width="55.2" height="55.2"/><path class="cls-1" d="M547.24,295.56v49.2H498v-49.2h49.21m3.5-6H494.53a2.49,2.49,0,0,0-2.5,2.49v56.22a2.5,2.5,0,0,0,2.5,2.49h56.21a2.5,2.5,0,0,0,2.5-2.49V292.05a2.49,2.49,0,0,0-2.5-2.49Z" transform="translate(-1.88 -1.92)"/></g><g id="use8287"><rect class="cls-4" x="560.66" y="290.64" width="55.2" height="55.2"/><path class="cls-1" d="M614.74,295.56v49.2h-49.2v-49.2h49.2m3.51-6H562a2.48,2.48,0,0,0-2.49,2.49v56.22a2.49,2.49,0,0,0,2.49,2.49h56.22a2.5,2.5,0,0,0,2.49-2.49V292.05a2.49,2.49,0,0,0-2.49-2.49Z" transform="translate(-1.88 -1.92)"/></g><g id="use8289"><path class="cls-1" d="M682.24,295.56v49.2H633v-49.2h49.2m3.51-6H629.53a2.49,2.49,0,0,0-2.49,2.49v56.22a2.5,2.5,0,0,0,2.49,2.49h56.22a2.49,2.49,0,0,0,2.49-2.49V292.05a2.48,2.48,0,0,0-2.49-2.49Z" transform="translate(-1.88 -1.92)"/></g><g id="use8291"><path class="cls-1" d="M749.75,295.56v49.2H700.54v-49.2h49.21m3.5-6H697a2.49,2.49,0,0,0-2.5,2.49v56.22a2.5,2.5,0,0,0,2.5,2.49h56.21a2.5,2.5,0,0,0,2.5-2.49V292.05a2.49,2.49,0,0,0-2.5-2.49Z" transform="translate(-1.88 -1.92)"/></g><g id="use8293"><path class="cls-1" d="M817.25,295.56v49.2h-49.2v-49.2h49.2m3.51-6H764.54a2.48,2.48,0,0,0-2.49,2.49v56.22a2.49,2.49,0,0,0,2.49,2.49h56.22a2.5,2.5,0,0,0,2.49-2.49V292.05a2.49,2.49,0,0,0-2.49-2.49Z" transform="translate(-1.88 -1.92)"/></g><g id="use8295"><path class="cls-1" d="M1002.11,295.56v49.2H835.55v-49.2h166.56m3.51-6H832a2.49,2.49,0,0,0-2.49,2.49v56.22a2.5,2.5,0,0,0,2.49,2.49h173.58a2.49,2.49,0,0,0,2.49-2.49V292.05a2.48,2.48,0,0,0-2.49-2.49Z" transform="translate(-1.88 -1.92)"/></g><g id="rect8323"><path class="cls-1" d="M70.58,363.06v49.2H7.88v-49.2h62.7m3.51-6H4.37a2.48,2.48,0,0,0-2.49,2.49v56.22a2.49,2.49,0,0,0,2.49,2.49H74.09a2.49,2.49,0,0,0,2.49-2.49V359.55a2.48,2.48,0,0,0-2.49-2.49Z" transform="translate(-1.88 -1.92)"/></g><g id="use8327"><path class="cls-1" d="M151.58,363.06v49.2H88.88v-49.2h62.7m3.51-6H85.37a2.49,2.49,0,0,0-2.49,2.49v56.22a2.5,2.5,0,0,0,2.49,2.49h69.72a2.49,2.49,0,0,0,2.49-2.49V359.55a2.48,2.48,0,0,0-2.49-2.49Z" transform="translate(-1.88 -1.92)"/></g><g id="use8329"><path class="cls-1" d="M232.59,363.06v49.2H169.88v-49.2h62.71m3.51-6H166.38a2.49,2.49,0,0,0-2.5,2.49v56.22a2.5,2.5,0,0,0,2.5,2.49H236.1a2.5,2.5,0,0,0,2.49-2.49V359.55a2.49,2.49,0,0,0-2.49-2.49Z" transform="translate(-1.88 -1.92)"/></g><g id="use8331"><path class="cls-1" d="M678.09,363.06v49.2H250.89v-49.2h427.2m3.51-6H247.38a2.48,2.48,0,0,0-2.49,2.49v56.22a2.49,2.49,0,0,0,2.49,2.49H681.6a2.49,2.49,0,0,0,2.49-2.49V359.55a2.48,2.48,0,0,0-2.49-2.49Z" transform="translate(-1.88 -1.92)"/></g><g id="use8333"><path class="cls-1" d="M759.08,363.06v49.2h-62.7v-49.2h62.7m3.51-6H692.87a2.48,2.48,0,0,0-2.49,2.49v56.22a2.49,2.49,0,0,0,2.49,2.49h69.72a2.49,2.49,0,0,0,2.49-2.49V359.55a2.48,2.48,0,0,0-2.49-2.49Z" transform="translate(-1.88 -1.92)"/></g><g id="use8335"><path class="cls-1" d="M840.08,363.06v49.2h-62.7v-49.2h62.7m3.51-6H773.87a2.49,2.49,0,0,0-2.49,2.49v56.22a2.5,2.5,0,0,0,2.49,2.49h69.72a2.49,2.49,0,0,0,2.49-2.49V359.55a2.48,2.48,0,0,0-2.49-2.49Z" transform="translate(-1.88 -1.92)"/></g><g id="use8337"><path class="cls-1" d="M921.09,363.06v49.2h-62.7v-49.2h62.7m3.51-6H854.88a2.48,2.48,0,0,0-2.49,2.49v56.22a2.49,2.49,0,0,0,2.49,2.49H924.6a2.5,2.5,0,0,0,2.49-2.49V359.55a2.49,2.49,0,0,0-2.49-2.49Z" transform="translate(-1.88 -1.92)"/></g><g id="rect6131"><path class="cls-1" d="M1002.09,363.06v49.2h-62.7v-49.2h62.7m3.51-6H935.88a2.48,2.48,0,0,0-2.49,2.49v56.22a2.49,2.49,0,0,0,2.49,2.49h69.72a2.5,2.5,0,0,0,2.49-2.49V359.55a2.49,2.49,0,0,0-2.49-2.49Z" transform="translate(-1.88 -1.92)"/></g></g><g id="layer4"><g id="text3750" class="cls-6"><g class="cls-6"><path class="cls-1" d="M126,185.15a19.07,19.07,0,0,1-3.64-.28,5.46,5.46,0,0,1-2.21-.86A3.32,3.32,0,0,1,119,182.4a9.07,9.07,0,0,1-.44-2.53c0-1-.07-2.17-.07-3.52s0-2.53.07-3.53a9,9,0,0,1,.44-2.52,3.32,3.32,0,0,1,1.16-1.61,5.6,5.6,0,0,1,2.21-.87,24.67,24.67,0,0,1,7.28,0,5.6,5.6,0,0,1,2.21.87A3.24,3.24,0,0,1,133,170.3a10.19,10.19,0,0,1,.45,2.52c.07,1,.1,2.18.1,3.53s0,2.52-.1,3.52a10.27,10.27,0,0,1-.45,2.53,3.24,3.24,0,0,1-1.15,1.61,5.46,5.46,0,0,1-2.21.86A19.07,19.07,0,0,1,126,185.15Zm0-3.8a11.31,11.31,0,0,0,1.14,0,1.15,1.15,0,0,0,.69-.29,1.54,1.54,0,0,0,.36-.76,10.48,10.48,0,0,0,.15-1.48c0-.63,0-1.44,0-2.42s0-1.79,0-2.43a10.48,10.48,0,0,0-.15-1.47,1.54,1.54,0,0,0-.36-.76,1.15,1.15,0,0,0-.69-.29,11.31,11.31,0,0,0-1.14-.05c-.45,0-.82,0-1.12.05a1.13,1.13,0,0,0-.7.29,1.46,1.46,0,0,0-.37.76,8.45,8.45,0,0,0-.13,1.47q0,1,0,2.43c0,1,0,1.79,0,2.42a8.48,8.48,0,0,0,.13,1.48,1.46,1.46,0,0,0,.37.76,1.13,1.13,0,0,0,.7.29C125.15,181.33,125.52,181.35,126,181.35Zm3.25,6.47-2.07-3,4.45-1.3,2.92,4.18v.17Z" transform="translate(-1.88 -1.92)"/></g></g><g id="text3754" class="cls-6"><g class="cls-6"><path class="cls-1" d="M188.4,185l-3.48-17.2h5.13l1.9,11.47h.25l2.3-11.47h5.3l2.35,11.47h.22l1.73-11.47h5.12L205.77,185h-6.5l-2.07-9.7H197l-2.1,9.7Z" transform="translate(-1.88 -1.92)"/></g></g><g id="text3758" class="cls-6"><g class="cls-6"><path class="cls-1" d="M253.77,185v-17.2H266.1v3.8h-7.2v2.85h6v3.72h-6v3h7.2V185Z" transform="translate(-1.88 -1.92)"/></g></g><g id="text3762" class="cls-6"><g class="cls-6"><path class="cls-1" d="M321.27,185v-17.2h8.78a9,9,0,0,1,2.76.35,3.29,3.29,0,0,1,1.59,1.06,4,4,0,0,1,.73,1.79,13.86,13.86,0,0,1,.19,2.45,13.62,13.62,0,0,1-.15,2.07,4.85,4.85,0,0,1-.6,1.74,3.13,3.13,0,0,1-1.37,1.21l2.47,6.53h-5.32l-2.2-6.83,1.27.7a1.31,1.31,0,0,1-.49.19,3.62,3.62,0,0,1-.63,0h-1.88V185Zm5.15-9.48h1.7a8,8,0,0,0,1.09-.06,1.25,1.25,0,0,0,.64-.26.89.89,0,0,0,.27-.6,10,10,0,0,0,.05-1.08,9.54,9.54,0,0,0,0-1,1,1,0,0,0-.22-.6,1.06,1.06,0,0,0-.61-.29,7.16,7.16,0,0,0-1.18-.08h-1.7Z" transform="translate(-1.88 -1.92)"/></g></g><g id="text3766" class="cls-6"><g class="cls-6"><path class="cls-1" d="M392.07,185V171.72h-4.45v-4h14.05v4h-4.45V185Z" transform="translate(-1.88 -1.92)"/></g></g><g id="text3770" class="cls-6"><g class="cls-6"><path class="cls-1" d="M460.3,185v-5.73l-5.58-11.47H460l2.85,6.77H463l2.85-6.77H471l-5.57,11.47V185Z" transform="translate(-1.88 -1.92)"/></g></g><g id="text3774" class="cls-6"><g class="cls-6"><path class="cls-1" d="M530.77,185.15a18.12,18.12,0,0,1-3.34-.25,5.21,5.21,0,0,1-2.07-.8,3.12,3.12,0,0,1-1.11-1.48,7.66,7.66,0,0,1-.45-2.28c-.07-.91-.1-2-.1-3.22v-9.37h5.17v10.3c0,.75,0,1.35,0,1.79a2.4,2.4,0,0,0,.2,1,.77.77,0,0,0,.56.4,5.26,5.26,0,0,0,1.1.09,4.92,4.92,0,0,0,1.08-.09.86.86,0,0,0,.56-.4,2.2,2.2,0,0,0,.22-1c0-.44,0-1,0-1.79v-10.3h5.15v9.37c0,1.24,0,2.31-.1,3.22a8.35,8.35,0,0,1-.45,2.28,3.17,3.17,0,0,1-1.1,1.48,5.1,5.1,0,0,1-2.06.8A18.12,18.12,0,0,1,530.77,185.15Z" transform="translate(-1.88 -1.92)"/></g></g><g id="text3778" class="cls-6"><g class="cls-6"><path class="cls-1" d="M591.27,185v-17.2h5.15V185Z" transform="translate(-1.88 -1.92)"/></g></g><g id="text3782" class="cls-6"><g class="cls-6"><path class="cls-1" d="M666,185.15a19.07,19.07,0,0,1-3.64-.28,5.46,5.46,0,0,1-2.21-.86A3.32,3.32,0,0,1,659,182.4a9.07,9.07,0,0,1-.44-2.53c0-1-.07-2.17-.07-3.52s0-2.53.07-3.53a9,9,0,0,1,.44-2.52,3.32,3.32,0,0,1,1.16-1.61,5.6,5.6,0,0,1,2.21-.87,24.67,24.67,0,0,1,7.28,0,5.6,5.6,0,0,1,2.21.87A3.24,3.24,0,0,1,673,170.3a10.19,10.19,0,0,1,.45,2.52c.07,1,.1,2.18.1,3.53s0,2.52-.1,3.52a10.27,10.27,0,0,1-.45,2.53,3.24,3.24,0,0,1-1.15,1.61,5.46,5.46,0,0,1-2.21.86A19.07,19.07,0,0,1,666,185.15Zm0-3.8a11.31,11.31,0,0,0,1.14,0,1.15,1.15,0,0,0,.69-.29,1.54,1.54,0,0,0,.36-.76,10.48,10.48,0,0,0,.15-1.48c0-.63,0-1.44,0-2.42s0-1.79,0-2.43a10.48,10.48,0,0,0-.15-1.47,1.54,1.54,0,0,0-.36-.76,1.15,1.15,0,0,0-.69-.29,11.31,11.31,0,0,0-1.14-.05c-.45,0-.82,0-1.12.05a1.13,1.13,0,0,0-.7.29,1.46,1.46,0,0,0-.37.76,8.45,8.45,0,0,0-.13,1.47q0,1,0,2.43c0,1,0,1.79,0,2.42a8.48,8.48,0,0,0,.13,1.48,1.46,1.46,0,0,0,.37.76,1.13,1.13,0,0,0,.7.29C665.15,181.33,665.52,181.35,666,181.35Z" transform="translate(-1.88 -1.92)"/></g></g><g id="text3786" class="cls-6"><g class="cls-6"><path class="cls-1" d="M726.27,185v-17.2h8.55a8.42,8.42,0,0,1,2.71.36,3.2,3.2,0,0,1,1.59,1.13,4.44,4.44,0,0,1,.74,1.86,15.8,15.8,0,0,1,.19,2.55,14.79,14.79,0,0,1-.18,2.41,4.75,4.75,0,0,1-.7,1.88,3.31,3.31,0,0,1-1.59,1.2,7.92,7.92,0,0,1-2.78.41h-3.38V185Zm5.15-9.13h1.4a8.21,8.21,0,0,0,1.13-.06,1,1,0,0,0,.61-.29,1.15,1.15,0,0,0,.27-.65,8.47,8.47,0,0,0,.07-1.17,9.1,9.1,0,0,0-.07-1.18,1.19,1.19,0,0,0-.26-.66,1,1,0,0,0-.6-.27,7.78,7.78,0,0,0-1.12-.07h-1.43Z" transform="translate(-1.88 -1.92)"/></g></g><g id="text3806" class="cls-6"><g class="cls-6"><path class="cls-1" d="M133.92,252.45l5.08-17.2h7.12l5.08,17.2h-5.13l-.82-2.95h-5.5l-.8,2.95Zm6.75-6.6h3.63l-1.73-6.35h-.2Z" transform="translate(-1.88 -1.92)"/></g></g><g id="text3810" class="cls-6"><g class="cls-6"><path class="cls-1" d="M209.42,252.65c-.7,0-1.45,0-2.24-.05s-1.56-.09-2.31-.16l-2-.22V248.6l1.84.15c.61.05,1.18.08,1.72.09h1.37c.75,0,1.3,0,1.67,0a1.92,1.92,0,0,0,.8-.2.85.85,0,0,0,.21-.31,1.93,1.93,0,0,0,.09-.38,3.48,3.48,0,0,0,0-.49,2.65,2.65,0,0,0-.08-.72.69.69,0,0,0-.27-.39,2,2,0,0,0-.63-.22c-.28-.06-.64-.12-1.07-.17l-3.23-.4a3,3,0,0,1-1.46-.51,2.71,2.71,0,0,1-.91-1.07,5,5,0,0,1-.45-1.6,14.72,14.72,0,0,1-.13-2.07,6.14,6.14,0,0,1,.51-2.72,3.78,3.78,0,0,1,1.43-1.58,5.79,5.79,0,0,1,2.12-.73,16.55,16.55,0,0,1,2.62-.19c.68,0,1.39,0,2.12.07s1.43.11,2.08.18a11.79,11.79,0,0,1,1.62.27v3.55c-.43-.05-.93-.09-1.5-.13s-1.15-.08-1.75-.1-1.17,0-1.7,0-.93,0-1.25,0a1.44,1.44,0,0,0-.7.18.75.75,0,0,0-.39.4,1.93,1.93,0,0,0-.08.63,2.88,2.88,0,0,0,.08.81.59.59,0,0,0,.42.39,7,7,0,0,0,1,.2l3,.35a10.17,10.17,0,0,1,1.25.26,3.13,3.13,0,0,1,1.06.54,3,3,0,0,1,.84,1.07,2.78,2.78,0,0,1,.3.8c.07.32.13.68.18,1.09a11.61,11.61,0,0,1,.07,1.39,9.29,9.29,0,0,1-.3,2.57,3.61,3.61,0,0,1-2.24,2.55,6.18,6.18,0,0,1-1.73.43A18.64,18.64,0,0,1,209.42,252.65Z" transform="translate(-1.88 -1.92)"/></g></g><g id="text3814" class="cls-6"><g class="cls-6"><path class="cls-1" d="M270.42,252.45v-17.2h6.2a24.67,24.67,0,0,1,3.81.24,5.67,5.67,0,0,1,2.33.82,3.29,3.29,0,0,1,1.21,1.56,8.34,8.34,0,0,1,.46,2.44q.09,1.47.09,3.54t-.09,3.54a8.27,8.27,0,0,1-.46,2.43,3.32,3.32,0,0,1-1.21,1.57,5.67,5.67,0,0,1-2.33.82,24.67,24.67,0,0,1-3.81.24Zm5.15-3.8h1.05c.53,0,1,0,1.33-.05a1.42,1.42,0,0,0,.81-.29,1.36,1.36,0,0,0,.41-.75,7.43,7.43,0,0,0,.16-1.41c0-.6,0-1.36,0-2.28s0-1.7,0-2.31a7.45,7.45,0,0,0-.16-1.42,1.31,1.31,0,0,0-.42-.75,1.51,1.51,0,0,0-.82-.29c-.34,0-.78,0-1.31,0h-1.05Z" transform="translate(-1.88 -1.92)"/></g></g><g id="text3818" class="cls-6"><g class="cls-6"><path class="cls-1" d="M337.92,252.45v-17.2h11.83v3.8h-6.7v3.5h5.77v3.8h-5.77v6.1Z" transform="translate(-1.88 -1.92)"/></g></g><g id="text3822" class="cls-6"><g class="cls-6"><path class="cls-1" d="M412.87,252.65a17.88,17.88,0,0,1-3.27-.26,6.47,6.47,0,0,1-2.24-.84A3.86,3.86,0,0,1,406,250a8.59,8.59,0,0,1-.68-2.53,32.05,32.05,0,0,1,0-7.15,8.51,8.51,0,0,1,.68-2.52,3.81,3.81,0,0,1,1.39-1.6,6.63,6.63,0,0,1,2.24-.84,17.69,17.69,0,0,1,3.26-.26c.6,0,1.26,0,2,.07s1.44.13,2.17.22,1.4.18,2,.28v3.55c-.53-.08-1.08-.14-1.65-.17l-1.59-.1c-.49,0-.88-.05-1.18-.05-.84,0-1.53,0-2.07.05a3.23,3.23,0,0,0-1.28.29,1.53,1.53,0,0,0-.72.76,4.29,4.29,0,0,0-.3,1.47q-.06,1-.06,2.43c0,.87,0,1.6,0,2.21a5.63,5.63,0,0,0,.21,1.48,2.14,2.14,0,0,0,.49.87,1.68,1.68,0,0,0,.85.43,6.89,6.89,0,0,0,1.31.11h.46l.53,0a3.24,3.24,0,0,0,.46,0v-3.15h-2v-3.48h6.6v9.85c-.6.1-1.28.19-2,.27l-2.2.18C414.16,252.62,413.49,252.65,412.87,252.65Z" transform="translate(-1.88 -1.92)"/></g></g><g id="text3826" class="cls-6"><g class="cls-6"><path class="cls-1" d="M472.92,252.45v-17.2h5.15v6.47h4.28v-6.47h5.15v17.2h-5.15v-6.53h-4.28v6.53Z" transform="translate(-1.88 -1.92)"/></g></g><g id="text3830" class="cls-6"><g class="cls-6"><path class="cls-1" d="M539.42,252.45v-3.58c.83,0,1.48,0,2-.08a1.63,1.63,0,0,0,1-.37,1.49,1.49,0,0,0,.39-.93,15.35,15.35,0,0,0,.08-1.72V235.25H548v9.22c0,1.54,0,2.8-.12,3.79a6.48,6.48,0,0,1-.53,2.35,2.5,2.5,0,0,1-1.34,1.24,8.54,8.54,0,0,1-2.51.49C542.43,252.41,541.07,252.45,539.42,252.45Z" transform="translate(-1.88 -1.92)"/></g></g><g id="text3834" class="cls-6"><g class="cls-6"><path class="cls-1" d="M607.92,252.45v-17.2h5.15v6.6h.73l4.17-6.6h5.5l-5.5,8.12,5.58,9.08h-5.68l-4.07-6.88h-.73v6.88Z" transform="translate(-1.88 -1.92)"/></g></g><g id="text3838" class="cls-6"><g class="cls-6"><path class="cls-1" d="M675.42,252.45v-17.2h5.15v13.22h6.18v4Z" transform="translate(-1.88 -1.92)"/></g></g><g id="text3858" class="cls-6"><g class="cls-6"><path class="cls-1" d="M168.67,320V316.3l7.1-9.75H169v-3.8h13.1v3.52l-7.18,9.9h7.2V320Z" transform="translate(-1.88 -1.92)"/></g></g><g id="text3862" class="cls-6"><g class="cls-6"><path class="cls-1" d="M235.37,320l5.23-8.65-5.13-8.55h5.75l2.6,4.72h.2l2.65-4.72h5.55l-5.12,8.47,5.2,8.73h-5.78l-2.67-4.83h-.25L240.92,320Z" transform="translate(-1.88 -1.92)"/></g></g><g id="text3866" class="cls-6"><g class="cls-6"><path class="cls-1" d="M311.25,320.15a15.87,15.87,0,0,1-3.29-.28,5.57,5.57,0,0,1-2.15-.87,3.58,3.58,0,0,1-1.25-1.61,9,9,0,0,1-.56-2.5q-.15-1.49-.15-3.54t.15-3.54a8.81,8.81,0,0,1,.56-2.51,3.55,3.55,0,0,1,1.25-1.6,5.73,5.73,0,0,1,2.15-.88,16.68,16.68,0,0,1,3.29-.27c.51,0,1.05,0,1.61.05s1.09.09,1.6.16.94.16,1.31.24v3.55l-1.52-.13-1.07-.06h-.71a14.91,14.91,0,0,0-1.66.07,2,2,0,0,0-1,.37,1.57,1.57,0,0,0-.54.81,5.57,5.57,0,0,0-.2,1.44c0,.61,0,1.38,0,2.31s0,1.68,0,2.3a5.75,5.75,0,0,0,.2,1.46,1.5,1.5,0,0,0,.54.81,2,2,0,0,0,1,.35,14.55,14.55,0,0,0,1.66.08c.5,0,1.08,0,1.73-.05a16.66,16.66,0,0,0,1.67-.15v3.62l-1.34.18q-.81.1-1.65.15C312.32,320.13,311.78,320.15,311.25,320.15Z" transform="translate(-1.88 -1.92)"/></g></g><g id="text3870" class="cls-6"><g class="cls-6"><path class="cls-1" d="M375,320l-4.8-17.2h5.25l2.9,11.75h.25l2.85-11.75h5.18l-4.8,17.2Z" transform="translate(-1.88 -1.92)"/></g></g><g id="text3874" class="cls-6"><g class="cls-6"><path class="cls-1" d="M439.17,320v-17.2h8.95a7,7,0,0,1,2.71.46,3.46,3.46,0,0,1,1.69,1.43,4.7,4.7,0,0,1,.58,2.43,5.38,5.38,0,0,1-.34,2.05,2.93,2.93,0,0,1-1,1.28,4.82,4.82,0,0,1-1.7.72v.1a5.29,5.29,0,0,1,1.72.68,2.72,2.72,0,0,1,1.05,1.26,5.69,5.69,0,0,1,.35,2.19,6.15,6.15,0,0,1-.29,2,3.53,3.53,0,0,1-.88,1.44,3.87,3.87,0,0,1-1.57.89,7.9,7.9,0,0,1-2.33.3Zm5.08-10.33h1.9a4.43,4.43,0,0,0,1.17-.11.75.75,0,0,0,.54-.46,2.88,2.88,0,0,0,.14-1,3.34,3.34,0,0,0-.13-1.06.7.7,0,0,0-.52-.45,4.51,4.51,0,0,0-1.2-.12h-1.9Zm0,6.68h1.95a3.92,3.92,0,0,0,1.17-.13.76.76,0,0,0,.53-.48,3.61,3.61,0,0,0,.12-1.07,3.45,3.45,0,0,0-.14-1.13.77.77,0,0,0-.52-.49,4.15,4.15,0,0,0-1.16-.13h-1.95Z" transform="translate(-1.88 -1.92)"/></g></g><g id="text3878" class="cls-6"><g class="cls-6"><path class="cls-1" d="M506.67,320v-17.2h5.25l4.4,7.85h.15v-7.85h4.93V320h-4.78l-4.9-9h-.15v9Z" transform="translate(-1.88 -1.92)"/></g></g><g id="text3882" class="cls-6"><g class="cls-6"><path class="cls-1" d="M574.17,320v-17.2h7.05l2.63,9.05h.2l2.62-9.05h7V320h-4.9V309.57h-.22l-3,10.38h-3.45l-3-10.38H579V320Z" transform="translate(-1.88 -1.92)"/></g></g></g><polygon class="cls-4" points="751.61 462.31 771.61 462.31 771.61 447.39 794.93 467.54 771.61 487.69 771.61 472.77 751.61 472.77 751.61 462.31"/><g id="text3786-2" data-name="text3786"><g class="cls-6"><path class="cls-4" d="M812.76,481V455.25h13.15a13.31,13.31,0,0,1,4.14.53,4.92,4.92,0,0,1,2.38,1.59,6.1,6.1,0,0,1,1.1,2.68,21.24,21.24,0,0,1,.28,3.67,20.51,20.51,0,0,1-.22,3.11,7.23,7.23,0,0,1-.9,2.6,4.73,4.73,0,0,1-2.06,1.82l3.71,9.77h-8l-3.3-10.22,1.91,1.05a2.07,2.07,0,0,1-.73.28,6.23,6.23,0,0,1-1,.05h-2.81V481Zm7.72-14.19H823a10.15,10.15,0,0,0,1.63-.1,1.8,1.8,0,0,0,1-.39,1.41,1.41,0,0,0,.41-.9,13.48,13.48,0,0,0,.08-1.61c0-.65,0-1.17-.06-1.55a1.31,1.31,0,0,0-1.26-1.33,10,10,0,0,0-1.76-.12h-2.54Z" transform="translate(-1.88 -1.92)"/><path class="cls-4" d="M837.78,481V455.25h7.72V481Z" transform="translate(-1.88 -1.92)"/><path class="cls-4" d="M861.2,481.32a26.37,26.37,0,0,1-4.91-.39,9.54,9.54,0,0,1-3.36-1.25,5.83,5.83,0,0,1-2.06-2.4,13,13,0,0,1-1-3.78,48,48,0,0,1,0-10.72,12.91,12.91,0,0,1,1-3.78,5.74,5.74,0,0,1,2.08-2.4,9.69,9.69,0,0,1,3.36-1.25,25.1,25.1,0,0,1,4.89-.4c.89,0,1.88,0,2.95.12s2.16.18,3.26.31,2.1.28,3,.43v5.32c-.8-.12-1.62-.21-2.47-.26l-2.38-.15c-.74-.05-1.33-.07-1.78-.07-1.25,0-2.28,0-3.09.07a5.2,5.2,0,0,0-1.93.43,2.31,2.31,0,0,0-1.07,1.15,6.65,6.65,0,0,0-.45,2.2c-.06.95-.09,2.17-.09,3.64,0,1.3,0,2.4.06,3.31a8.72,8.72,0,0,0,.31,2.21,3.26,3.26,0,0,0,.73,1.32,2.5,2.5,0,0,0,1.28.63,9.85,9.85,0,0,0,2,.17l.7,0,.78,0c.27,0,.5,0,.7,0V471h-3v-5.21h9.89v14.76c-.9.15-1.9.28-3,.39s-2.21.21-3.3.28S862.12,481.32,861.2,481.32Z" transform="translate(-1.88 -1.92)"/><path class="cls-4" d="M874.91,481V455.25h7.71V465H889v-9.7h7.71V481H889v-9.77h-6.41V481Z" transform="translate(-1.88 -1.92)"/><path class="cls-4" d="M906.26,481V461.21h-6.67v-6h21v6H914V481Z" transform="translate(-1.88 -1.92)"/></g></g><polygon class="cls-2" points="570.15 473.89 550.16 473.89 550.16 488.81 526.84 468.66 550.16 448.5 550.16 463.43 570.15 463.43 570.15 473.89"/><g id="text3786-3" data-name="text3786"><g class="cls-6"><path class="cls-2" d="M588,481V455.2h7.72V475H605v6Z" transform="translate(-1.88 -1.92)"/><path class="cls-2" d="M608,481V455.2h18.47v5.69H615.7v4.27h9v5.59h-9v4.53h10.79V481Z" transform="translate(-1.88 -1.92)"/><path class="cls-2" d="M630.65,481V455.2h17.72v5.69h-10v5.25H647v5.69h-8.65V481Z" transform="translate(-1.88 -1.92)"/><path class="cls-2" d="M656.91,481V461.16h-6.67v-6h21v6h-6.67V481Z" transform="translate(-1.88 -1.92)"/></g></g><polygon class="cls-3" points="102.36 488.36 102.36 468.37 87.44 468.37 107.59 445.05 127.75 468.37 112.83 468.37 112.83 488.36 102.36 488.36"/><g id="text3786-4" data-name="text3786"><g class="cls-6"><path class="cls-3" d="M157.57,483.66a27.53,27.53,0,0,1-5-.37,7.78,7.78,0,0,1-3.11-1.2,4.75,4.75,0,0,1-1.67-2.21,12.78,12.78,0,0,1-.67-3.43c-.1-1.36-.15-3-.15-4.81V457.59h7.75V473c0,1.13,0,2,.06,2.68a3.88,3.88,0,0,0,.3,1.46,1.17,1.17,0,0,0,.84.6,7.94,7.94,0,0,0,1.65.13,7.34,7.34,0,0,0,1.61-.13,1.3,1.3,0,0,0,.85-.6,3.31,3.31,0,0,0,.33-1.46c0-.66.06-1.55.06-2.68V457.59h7.72v14.05c0,1.84,0,3.45-.15,4.81a12.38,12.38,0,0,1-.68,3.43,4.78,4.78,0,0,1-1.65,2.21,7.62,7.62,0,0,1-3.09,1.2A27.46,27.46,0,0,1,157.57,483.66Z" transform="translate(-1.88 -1.92)"/><path class="cls-3" d="M172.63,483.36V457.59h12.81a12.72,12.72,0,0,1,4.07.54,4.81,4.81,0,0,1,2.38,1.69,6.73,6.73,0,0,1,1.1,2.79,22.68,22.68,0,0,1,.28,3.82A23.36,23.36,0,0,1,193,470a7.09,7.09,0,0,1-1,2.81,4.83,4.83,0,0,1-2.38,1.8,11.77,11.77,0,0,1-4.18.62h-5.05v8.09Zm7.72-13.67h2.1a10.43,10.43,0,0,0,1.68-.1,1.5,1.5,0,0,0,.92-.43,1.71,1.71,0,0,0,.41-1,13.24,13.24,0,0,0,.09-1.76,13.88,13.88,0,0,0-.09-1.76,1.75,1.75,0,0,0-.39-1,1.52,1.52,0,0,0-.9-.42,12.08,12.08,0,0,0-1.69-.09h-2.13Z" transform="translate(-1.88 -1.92)"/></g></g><polygon class="cls-5" points="299.95 447.43 299.95 467.43 314.87 467.43 294.72 490.75 274.57 467.43 289.49 467.43 289.49 447.43 299.95 447.43"/><g id="text3786-5" data-name="text3786"><g class="cls-6"><path class="cls-5" d="M334.21,481V455.21h9.29a37.11,37.11,0,0,1,5.71.35,8.37,8.37,0,0,1,3.49,1.24,4.91,4.91,0,0,1,1.81,2.34,12.19,12.19,0,0,1,.7,3.65c.08,1.46.13,3.23.13,5.3s0,3.84-.13,5.3a12.19,12.19,0,0,1-.7,3.65,5,5,0,0,1-1.81,2.35,8.52,8.52,0,0,1-3.49,1.23,36.94,36.94,0,0,1-5.71.36Zm7.72-5.7h1.57c.8,0,1.46,0,2-.07a2.15,2.15,0,0,0,1.21-.43,2,2,0,0,0,.62-1.13,10.32,10.32,0,0,0,.24-2.11c0-.9.06-2,.06-3.41s0-2.55-.06-3.47a10.46,10.46,0,0,0-.24-2.13,2,2,0,0,0-.64-1.13,2.32,2.32,0,0,0-1.21-.43c-.52-.05-1.17-.07-2-.07h-1.57Z" transform="translate(-1.88 -1.92)"/><path class="cls-5" d="M370.25,481.28a29.81,29.81,0,0,1-5.45-.41,8.31,8.31,0,0,1-3.32-1.3,4.91,4.91,0,0,1-1.74-2.41,13.82,13.82,0,0,1-.66-3.79c-.07-1.49-.11-3.26-.11-5.28s0-3.78.11-5.28a13.67,13.67,0,0,1,.66-3.78,4.93,4.93,0,0,1,1.74-2.42,8.17,8.17,0,0,1,3.32-1.29,36.43,36.43,0,0,1,10.9,0,8.12,8.12,0,0,1,3.31,1.29,4.86,4.86,0,0,1,1.73,2.42,15.3,15.3,0,0,1,.67,3.78q.15,2.25.15,5.28c0,2-.05,3.79-.15,5.28a15.48,15.48,0,0,1-.67,3.79,4.83,4.83,0,0,1-1.73,2.41,8.26,8.26,0,0,1-3.31,1.3A29.88,29.88,0,0,1,370.25,481.28Zm0-5.7a15.72,15.72,0,0,0,1.7-.07,1.71,1.71,0,0,0,1-.43,2.17,2.17,0,0,0,.54-1.14,13.28,13.28,0,0,0,.23-2.22q.06-1.41.06-3.63t-.06-3.63a13,13,0,0,0-.23-2.21,2.1,2.1,0,0,0-.54-1.14,1.72,1.72,0,0,0-1-.44,15.72,15.72,0,0,0-1.7-.07,15.88,15.88,0,0,0-1.69.07,1.75,1.75,0,0,0-1.05.44,2.1,2.1,0,0,0-.54,1.14,13.4,13.4,0,0,0-.21,2.21q0,1.43,0,3.63t0,3.63a13.66,13.66,0,0,0,.21,2.22,2.17,2.17,0,0,0,.54,1.14,1.74,1.74,0,0,0,1.05.43A15.88,15.88,0,0,0,370.25,475.58Z" transform="translate(-1.88 -1.92)"/><path class="cls-5" d="M388.45,481l-5.21-25.77h7.68l2.85,17.19h.38l3.44-17.19h7.94l3.53,17.19h.33L412,455.21h7.68L414.49,481h-9.74l-3.11-14.54h-.34L398.15,481Z" transform="translate(-1.88 -1.92)"/><path class="cls-5" d="M422.2,481V455.21h7.87L436.66,467h.23V455.21h7.38V481h-7.16l-7.34-13.49h-.22V481Z" transform="translate(-1.88 -1.92)"/></g></g></svg>