<svg id="Layer_1" data-name="Layer 1" xmlns="http://www.w3.org/2000/svg" viewBox="0 0 1035.84 200.82"><defs><style>.cls-1{fill:#cb0c5a;}.cls-2{fill:#071e26;}.cls-3{fill:#0f528c;}.cls-4{fill:#071e26;}.cls-5{fill:#22a0b6;}.cls-6{isolation:isolate;}.cls-7{fill:#fff;}</style></defs><g id="layer1"><g id="use8123"><rect class="cls-1" x="3" y="7.62" width="55.2" height="55.2"/><path class="cls-2" d="M55.2,16.47v49.2H6V16.47H55.2m3.51-6H2.49A2.49,2.49,0,0,0,0,13V69.18a2.5,2.5,0,0,0,2.49,2.49H58.71a2.49,2.49,0,0,0,2.49-2.49V13a2.48,2.48,0,0,0-2.49-2.49Z" transform="translate(0 -5.84)"/></g><g id="use8125"><rect class="cls-1" x="70.5" y="7.62" width="55.2" height="55.2"/><path class="cls-2" d="M122.71,16.47v49.2H73.5V16.47h49.21m3.5-6H70A2.49,2.49,0,0,0,67.5,13V69.18A2.5,2.5,0,0,0,70,71.67h56.21a2.5,2.5,0,0,0,2.5-2.49V13a2.49,2.49,0,0,0-2.5-2.49Z" transform="translate(0 -5.84)"/></g><g id="use8127"><rect class="cls-3" x="138.01" y="7.62" width="55.2" height="55.2"/><path class="cls-2" d="M190.21,16.47v49.2H141V16.47h49.2m3.51-6H137.5A2.48,2.48,0,0,0,135,13V69.18a2.49,2.49,0,0,0,2.49,2.49h56.22a2.5,2.5,0,0,0,2.49-2.49V13a2.49,2.49,0,0,0-2.49-2.49Z" transform="translate(0 -5.84)"/></g><g id="use8129"><rect class="cls-3" x="205.51" y="7.62" width="55.2" height="55.2"/><path class="cls-2" d="M257.71,16.47v49.2h-49.2V16.47h49.2m3.51-6H205A2.48,2.48,0,0,0,202.51,13V69.18A2.49,2.49,0,0,0,205,71.67h56.22a2.49,2.49,0,0,0,2.49-2.49V13a2.48,2.48,0,0,0-2.49-2.49Z" transform="translate(0 -5.84)"/></g><g id="use8131"><rect class="cls-3" x="273.01" y="7.62" width="55.2" height="55.2"/><path class="cls-2" d="M325.22,16.47v49.2H276V16.47h49.21m3.5-6H272.5A2.49,2.49,0,0,0,270,13V69.18a2.5,2.5,0,0,0,2.49,2.49h56.22a2.5,2.5,0,0,0,2.5-2.49V13a2.49,2.49,0,0,0-2.5-2.49Z" transform="translate(0 -5.84)"/></g><g id="use8133"><rect class="cls-3" x="340.52" y="7.62" width="55.2" height="55.2"/><path class="cls-2" d="M392.72,16.47v49.2H343.51V16.47h49.21m3.51-6H340a2.49,2.49,0,0,0-2.5,2.49V69.18a2.5,2.5,0,0,0,2.5,2.49h56.22a2.5,2.5,0,0,0,2.49-2.49V13a2.49,2.49,0,0,0-2.49-2.49Z" transform="translate(0 -5.84)"/></g><g id="use8135"><rect class="cls-3" x="408.02" y="7.62" width="55.2" height="55.2"/><path class="cls-2" d="M460.22,16.47v49.2H411V16.47h49.2m3.51-6H407.51A2.48,2.48,0,0,0,405,13V69.18a2.49,2.49,0,0,0,2.49,2.49h56.22a2.49,2.49,0,0,0,2.49-2.49V13a2.48,2.48,0,0,0-2.49-2.49Z" transform="translate(0 -5.84)"/></g><g id="use8137"><rect class="cls-4" x="475.52" y="7.62" width="55.2" height="55.2"/><path class="cls-2" d="M527.72,16.47v49.2h-49.2V16.47h49.2m3.51-6H475A2.49,2.49,0,0,0,472.52,13V69.18A2.5,2.5,0,0,0,475,71.67h56.22a2.49,2.49,0,0,0,2.49-2.49V13a2.48,2.48,0,0,0-2.49-2.49Z" transform="translate(0 -5.84)"/></g><g id="use8139"><rect class="cls-4" x="543.02" y="7.62" width="55.2" height="55.2"/><path class="cls-2" d="M595.23,16.47v49.2H546V16.47h49.21m3.5-6H542.52A2.49,2.49,0,0,0,540,13V69.18a2.5,2.5,0,0,0,2.5,2.49h56.21a2.5,2.5,0,0,0,2.5-2.49V13a2.49,2.49,0,0,0-2.5-2.49Z" transform="translate(0 -5.84)"/></g><g id="use8141"><rect class="cls-4" x="610.53" y="7.62" width="55.2" height="55.2"/><path class="cls-2" d="M662.73,16.47v49.2h-49.2V16.47h49.2m3.51-6H610A2.48,2.48,0,0,0,607.53,13V69.18A2.49,2.49,0,0,0,610,71.67h56.22a2.5,2.5,0,0,0,2.49-2.49V13a2.49,2.49,0,0,0-2.49-2.49Z" transform="translate(0 -5.84)"/></g><g id="rect8179"><rect class="cls-1" x="19.65" y="75.12" width="55.2" height="55.2"/><path class="cls-2" d="M71.85,84v49.2H22.65V84h49.2m3.51-6H19.14a2.49,2.49,0,0,0-2.49,2.49v56.22a2.5,2.5,0,0,0,2.49,2.49H75.36a2.49,2.49,0,0,0,2.49-2.49V80.46A2.48,2.48,0,0,0,75.36,78Z" transform="translate(0 -5.84)"/></g><g id="use8183"><rect class="cls-1" x="87.15" y="75.12" width="55.2" height="55.2"/><path class="cls-2" d="M139.36,84v49.2H90.15V84h49.21m3.5-6H86.65a2.49,2.49,0,0,0-2.5,2.49v56.22a2.5,2.5,0,0,0,2.5,2.49h56.21a2.5,2.5,0,0,0,2.5-2.49V80.46a2.49,2.49,0,0,0-2.5-2.49Z" transform="translate(0 -5.84)"/></g><g id="use8185"><rect class="cls-3" x="154.66" y="75.12" width="55.2" height="55.2"/><path class="cls-2" d="M206.86,84v49.2h-49.2V84h49.2m3.51-6H154.15a2.48,2.48,0,0,0-2.49,2.49v56.22a2.49,2.49,0,0,0,2.49,2.49h56.22a2.5,2.5,0,0,0,2.49-2.49V80.46A2.49,2.49,0,0,0,210.37,78Z" transform="translate(0 -5.84)"/></g><g id="use8187"><rect class="cls-3" x="222.16" y="75.12" width="55.2" height="55.2"/><path class="cls-2" d="M274.36,84v49.2h-49.2V84h49.2m3.51-6H221.65a2.48,2.48,0,0,0-2.49,2.49v56.22a2.49,2.49,0,0,0,2.49,2.49h56.22a2.49,2.49,0,0,0,2.49-2.49V80.46A2.48,2.48,0,0,0,277.87,78Z" transform="translate(0 -5.84)"/></g><g id="use8189"><rect class="cls-5" x="289.66" y="75.12" width="55.2" height="55.2"/><path class="cls-2" d="M341.87,84v49.2H292.66V84h49.21m3.5-6H289.15a2.49,2.49,0,0,0-2.49,2.49v56.22a2.5,2.5,0,0,0,2.49,2.49h56.22a2.5,2.5,0,0,0,2.5-2.49V80.46a2.49,2.49,0,0,0-2.5-2.49Z" transform="translate(0 -5.84)"/></g><g id="use8191"><rect class="cls-5" x="357.17" y="75.12" width="55.2" height="55.2"/><path class="cls-2" d="M409.37,84v49.2h-49.2V84h49.2m3.51-6H356.66a2.48,2.48,0,0,0-2.49,2.49v56.22a2.49,2.49,0,0,0,2.49,2.49h56.22a2.5,2.5,0,0,0,2.49-2.49V80.46A2.49,2.49,0,0,0,412.88,78Z" transform="translate(0 -5.84)"/></g><g id="use8193"><rect class="cls-5" x="424.67" y="75.12" width="55.2" height="55.2"/><path class="cls-2" d="M476.87,84v49.2h-49.2V84h49.2m3.51-6H424.16a2.48,2.48,0,0,0-2.49,2.49v56.22a2.49,2.49,0,0,0,2.49,2.49h56.22a2.49,2.49,0,0,0,2.49-2.49V80.46A2.48,2.48,0,0,0,480.38,78Z" transform="translate(0 -5.84)"/></g><g id="use8195"><rect class="cls-4" x="492.17" y="75.12" width="55.2" height="55.2"/><path class="cls-2" d="M544.37,84v49.2h-49.2V84h49.2m3.51-6H491.66a2.49,2.49,0,0,0-2.49,2.49v56.22a2.5,2.5,0,0,0,2.49,2.49h56.22a2.49,2.49,0,0,0,2.49-2.49V80.46A2.48,2.48,0,0,0,547.88,78Z" transform="translate(0 -5.84)"/></g><g id="use8197"><rect class="cls-4" x="559.67" y="75.12" width="55.2" height="55.2"/><path class="cls-2" d="M611.88,84v49.2H562.67V84h49.21m3.5-6H559.17a2.49,2.49,0,0,0-2.5,2.49v56.22a2.5,2.5,0,0,0,2.5,2.49h56.21a2.5,2.5,0,0,0,2.5-2.49V80.46a2.49,2.49,0,0,0-2.5-2.49Z" transform="translate(0 -5.84)"/></g><g id="use8275"><rect class="cls-1" x="53.4" y="142.62" width="55.2" height="55.2"/><path class="cls-2" d="M105.6,151.47v49.2H56.4v-49.2h49.2m3.51-6H52.89A2.49,2.49,0,0,0,50.4,148v56.22a2.5,2.5,0,0,0,2.49,2.49h56.22a2.49,2.49,0,0,0,2.49-2.49V148a2.48,2.48,0,0,0-2.49-2.49Z" transform="translate(0 -5.84)"/></g><g id="use8277"><rect class="cls-1" x="120.9" y="142.62" width="55.2" height="55.2"/><path class="cls-2" d="M173.11,151.47v49.2H123.9v-49.2h49.21m3.5-6H120.4a2.49,2.49,0,0,0-2.5,2.49v56.22a2.5,2.5,0,0,0,2.5,2.49h56.21a2.5,2.5,0,0,0,2.5-2.49V148a2.49,2.49,0,0,0-2.5-2.49Z" transform="translate(0 -5.84)"/></g><g id="use8279"><rect class="cls-5" x="188.41" y="142.62" width="55.2" height="55.2"/><path class="cls-2" d="M240.61,151.47v49.2h-49.2v-49.2h49.2m3.51-6H187.9a2.48,2.48,0,0,0-2.49,2.49v56.22a2.49,2.49,0,0,0,2.49,2.49h56.22a2.5,2.5,0,0,0,2.49-2.49V148a2.49,2.49,0,0,0-2.49-2.49Z" transform="translate(0 -5.84)"/></g><g id="use8281"><rect class="cls-5" x="255.91" y="142.62" width="55.2" height="55.2"/><path class="cls-2" d="M308.11,151.47v49.2h-49.2v-49.2h49.2m3.51-6H255.4a2.48,2.48,0,0,0-2.49,2.49v56.22a2.49,2.49,0,0,0,2.49,2.49h56.22a2.49,2.49,0,0,0,2.49-2.49V148a2.48,2.48,0,0,0-2.49-2.49Z" transform="translate(0 -5.84)"/></g><g id="use8283"><rect class="cls-5" x="323.41" y="142.62" width="55.2" height="55.2"/><path class="cls-2" d="M375.62,151.47v49.2H326.41v-49.2h49.21m3.5-6H322.9a2.49,2.49,0,0,0-2.49,2.49v56.22a2.5,2.5,0,0,0,2.49,2.49h56.22a2.5,2.5,0,0,0,2.5-2.49V148a2.49,2.49,0,0,0-2.5-2.49Z" transform="translate(0 -5.84)"/></g><g id="use8285"><rect class="cls-5" x="390.92" y="142.62" width="55.2" height="55.2"/><path class="cls-2" d="M443.12,151.47v49.2h-49.2v-49.2h49.2m3.51-6H390.41a2.48,2.48,0,0,0-2.49,2.49v56.22a2.49,2.49,0,0,0,2.49,2.49h56.22a2.5,2.5,0,0,0,2.49-2.49V148a2.49,2.49,0,0,0-2.49-2.49Z" transform="translate(0 -5.84)"/></g><g id="use8287"><rect class="cls-4" x="458.42" y="142.62" width="55.2" height="55.2"/><path class="cls-2" d="M510.62,151.47v49.2h-49.2v-49.2h49.2m3.51-6H457.91a2.48,2.48,0,0,0-2.49,2.49v56.22a2.49,2.49,0,0,0,2.49,2.49h56.22a2.49,2.49,0,0,0,2.49-2.49V148a2.48,2.48,0,0,0-2.49-2.49Z" transform="translate(0 -5.84)"/></g></g><g id="layer4"><g id="text3750" class="cls-6"><g class="cls-6"><path class="cls-7" d="M21.85,41.06a19.14,19.14,0,0,1-3.64-.28A5.46,5.46,0,0,1,16,39.92a3.32,3.32,0,0,1-1.16-1.61,9.13,9.13,0,0,1-.44-2.53c-.05-1-.07-2.17-.07-3.52s0-2.53.07-3.53a9,9,0,0,1,.44-2.52A3.27,3.27,0,0,1,16,24.6a5.46,5.46,0,0,1,2.21-.87,20.12,20.12,0,0,1,3.64-.27,20,20,0,0,1,3.64.27,5.46,5.46,0,0,1,2.21.87,3.19,3.19,0,0,1,1.15,1.61,10.19,10.19,0,0,1,.45,2.52c.07,1,.1,2.18.1,3.53s0,2.52-.1,3.52a10.36,10.36,0,0,1-.45,2.53,3.24,3.24,0,0,1-1.15,1.61,5.46,5.46,0,0,1-2.21.86A19.07,19.07,0,0,1,21.85,41.06Zm0-3.8a11.31,11.31,0,0,0,1.14,0,1.21,1.21,0,0,0,.69-.29,1.54,1.54,0,0,0,.36-.76,10.48,10.48,0,0,0,.15-1.48c0-.63,0-1.44,0-2.42s0-1.79,0-2.43A10.48,10.48,0,0,0,24,28.36a1.5,1.5,0,0,0-.36-.76,1.15,1.15,0,0,0-.69-.29,9,9,0,0,0-1.14,0,8.9,8.9,0,0,0-1.12,0,1.13,1.13,0,0,0-.7.29,1.42,1.42,0,0,0-.37.76,8.45,8.45,0,0,0-.13,1.47c0,.64,0,1.44,0,2.43s0,1.79,0,2.42a8.48,8.48,0,0,0,.13,1.48,1.46,1.46,0,0,0,.37.76,1.19,1.19,0,0,0,.7.29C21,37.24,21.4,37.26,21.85,37.26Zm3.25,6.47-2.07-3,4.45-1.3,2.92,4.18v.17Z" transform="translate(0 -5.84)"/></g></g><g id="text3754" class="cls-6"><g class="cls-6"><path class="cls-7" d="M84.28,40.86,80.8,23.66h5.13l1.9,11.47h.25l2.3-11.47h5.3L98,35.13h.22L100,23.66h5.12l-3.45,17.2h-6.5l-2.07-9.7h-.23l-2.1,9.7Z" transform="translate(0 -5.84)"/></g></g><g id="text3758" class="cls-6"><g class="cls-6"><path class="cls-7" d="M149.65,40.86V23.66H162v3.8h-7.2v2.85h6V34h-6v3H162v3.8Z" transform="translate(0 -5.84)"/></g></g><g id="text3762" class="cls-6"><g class="cls-6"><path class="cls-7" d="M217.15,40.86V23.66h8.78a8.66,8.66,0,0,1,2.76.35,3.29,3.29,0,0,1,1.59,1.06,4,4,0,0,1,.73,1.79,13.78,13.78,0,0,1,.19,2.45,13.62,13.62,0,0,1-.15,2.07,4.85,4.85,0,0,1-.6,1.74,3.13,3.13,0,0,1-1.37,1.21l2.47,6.53h-5.32L224,34l1.27.7a1.25,1.25,0,0,1-.49.19,3.55,3.55,0,0,1-.63,0H222.3v5.9Zm5.15-9.48H224a8,8,0,0,0,1.09-.06,1.25,1.25,0,0,0,.64-.26.91.91,0,0,0,.27-.6,8,8,0,0,0,.05-1.08,9.43,9.43,0,0,0,0-1,1,1,0,0,0-.22-.6,1,1,0,0,0-.61-.29,7.16,7.16,0,0,0-1.18-.08h-1.7Z" transform="translate(0 -5.84)"/></g></g><g id="text3766" class="cls-6"><g class="cls-6"><path class="cls-7" d="M288,40.86V27.63H283.5v-4h14.05v4H293.1V40.86Z" transform="translate(0 -5.84)"/></g></g><g id="text3770" class="cls-6"><g class="cls-6"><path class="cls-7" d="M356.18,40.86V35.13L350.6,23.66h5.28l2.85,6.77h.17l2.85-6.77h5.15l-5.57,11.47v5.73Z" transform="translate(0 -5.84)"/></g></g><g id="text3774" class="cls-6"><g class="cls-6"><path class="cls-7" d="M426.65,41.06a19,19,0,0,1-3.34-.25,5.36,5.36,0,0,1-2.07-.8,3.12,3.12,0,0,1-1.11-1.48,7.73,7.73,0,0,1-.45-2.28c-.07-.91-.1-2-.1-3.22V23.66h5.17V34c0,.75,0,1.34,0,1.79a2.4,2.4,0,0,0,.2,1,.79.79,0,0,0,.56.4,5.32,5.32,0,0,0,1.1.09,4.92,4.92,0,0,0,1.08-.09.86.86,0,0,0,.56-.4,2.2,2.2,0,0,0,.22-1c0-.45,0-1,0-1.79V23.66h5.15V33c0,1.24,0,2.31-.1,3.22a7.73,7.73,0,0,1-.45,2.28,3.17,3.17,0,0,1-1.1,1.48,5.25,5.25,0,0,1-2.06.8A19,19,0,0,1,426.65,41.06Z" transform="translate(0 -5.84)"/></g></g><g id="text3778" class="cls-6"><g class="cls-6"><path class="cls-7" d="M487.15,40.86V23.66h5.15v17.2Z" transform="translate(0 -5.84)"/></g></g><g id="text3782" class="cls-6"><g class="cls-6"><path class="cls-7" d="M561.85,41.06a19.14,19.14,0,0,1-3.64-.28,5.52,5.52,0,0,1-2.21-.86,3.32,3.32,0,0,1-1.16-1.61,9.13,9.13,0,0,1-.44-2.53c0-1-.07-2.17-.07-3.52s0-2.53.07-3.53a9,9,0,0,1,.44-2.52A3.27,3.27,0,0,1,556,24.6a5.52,5.52,0,0,1,2.21-.87,24.67,24.67,0,0,1,7.28,0,5.46,5.46,0,0,1,2.21.87,3.14,3.14,0,0,1,1.15,1.61,9.34,9.34,0,0,1,.45,2.52c.07,1,.1,2.18.1,3.53s0,2.52-.1,3.52a9.49,9.49,0,0,1-.45,2.53,3.18,3.18,0,0,1-1.15,1.61,5.46,5.46,0,0,1-2.21.86A19,19,0,0,1,561.85,41.06Zm0-3.8a11.31,11.31,0,0,0,1.14,0,1.21,1.21,0,0,0,.69-.29,1.54,1.54,0,0,0,.36-.76,10.48,10.48,0,0,0,.15-1.48c0-.63,0-1.44,0-2.42s0-1.79,0-2.43a10.48,10.48,0,0,0-.15-1.47,1.5,1.5,0,0,0-.36-.76,1.15,1.15,0,0,0-.69-.29,12.79,12.79,0,0,0-2.26,0,1.13,1.13,0,0,0-.7.29,1.42,1.42,0,0,0-.37.76,8.45,8.45,0,0,0-.13,1.47c0,.64,0,1.44,0,2.43s0,1.79,0,2.42a8.48,8.48,0,0,0,.13,1.48,1.46,1.46,0,0,0,.37.76,1.19,1.19,0,0,0,.7.29C561,37.24,561.4,37.26,561.85,37.26Z" transform="translate(0 -5.84)"/></g></g><g id="text3786" class="cls-6"><g class="cls-6"><path class="cls-7" d="M622.15,40.86V23.66h8.55a8.42,8.42,0,0,1,2.71.36A3.11,3.11,0,0,1,635,25.15a4.33,4.33,0,0,1,.74,1.86,15.8,15.8,0,0,1,.19,2.55,14.79,14.79,0,0,1-.18,2.41,4.6,4.6,0,0,1-.7,1.88,3.31,3.31,0,0,1-1.59,1.2,7.88,7.88,0,0,1-2.78.41H627.3v5.4Zm5.15-9.13h1.4a8.11,8.11,0,0,0,1.13-.06,1,1,0,0,0,.61-.29,1.15,1.15,0,0,0,.27-.65,7.14,7.14,0,0,0,.07-1.17,7.52,7.52,0,0,0-.07-1.18,1.12,1.12,0,0,0-.26-.66,1,1,0,0,0-.6-.27,6.47,6.47,0,0,0-1.12-.07H627.3Z" transform="translate(0 -5.84)"/></g></g><g id="text3806" class="cls-6"><g class="cls-6"><path class="cls-7" d="M29.8,108.36l5.08-17.2H42l5.08,17.2H42l-.82-3h-5.5l-.8,3Zm6.75-6.6h3.63l-1.73-6.35h-.2Z" transform="translate(0 -5.84)"/></g></g><g id="text3810" class="cls-6"><g class="cls-6"><path class="cls-7" d="M105.3,108.56c-.7,0-1.44,0-2.24,0s-1.56-.09-2.31-.16l-2-.22v-3.62l1.84.15c.61,0,1.18.08,1.72.09h1.37c.75,0,1.3,0,1.67-.05a2.09,2.09,0,0,0,.8-.2,1,1,0,0,0,.21-.31,1.12,1.12,0,0,0,.09-.38,3.48,3.48,0,0,0,0-.49,2.59,2.59,0,0,0-.08-.72.69.69,0,0,0-.27-.39,1.68,1.68,0,0,0-.63-.22c-.28-.06-.64-.12-1.07-.17l-3.23-.4a3,3,0,0,1-1.46-.51,2.71,2.71,0,0,1-.91-1.07,5.11,5.11,0,0,1-.45-1.6,14.72,14.72,0,0,1-.13-2.07,6.14,6.14,0,0,1,.51-2.72,3.79,3.79,0,0,1,1.43-1.58,5.85,5.85,0,0,1,2.12-.73,16.55,16.55,0,0,1,2.62-.19c.68,0,1.39,0,2.12.07s1.43.11,2.08.18a10.44,10.44,0,0,1,1.62.27V95c-.43,0-.93-.09-1.5-.13s-1.15-.08-1.75-.1-1.16,0-1.7,0-.93,0-1.25,0a1.44,1.44,0,0,0-.7.18.75.75,0,0,0-.39.4,2.25,2.25,0,0,0-.08.63,3.32,3.32,0,0,0,.08.81.59.59,0,0,0,.42.39,9.11,9.11,0,0,0,1,.2l3,.35a8.6,8.6,0,0,1,1.25.26,3,3,0,0,1,1.06.54,3,3,0,0,1,.84,1.07,2.3,2.3,0,0,1,.3.8c.07.32.13.68.18,1.09a11.61,11.61,0,0,1,.07,1.39,9.29,9.29,0,0,1-.3,2.57,3.61,3.61,0,0,1-2.24,2.55,6.18,6.18,0,0,1-1.73.43C106.69,108.52,106,108.56,105.3,108.56Z" transform="translate(0 -5.84)"/></g></g><g id="text3814" class="cls-6"><g class="cls-6"><path class="cls-7" d="M166.3,108.36V91.16h6.2a24.67,24.67,0,0,1,3.81.24,5.48,5.48,0,0,1,2.33.82,3.29,3.29,0,0,1,1.21,1.56,8,8,0,0,1,.46,2.44c.06,1,.09,2.15.09,3.54s0,2.56-.09,3.54a8,8,0,0,1-.46,2.43,3.36,3.36,0,0,1-1.21,1.57,5.61,5.61,0,0,1-2.33.82,24.67,24.67,0,0,1-3.81.24Zm5.15-3.8h1.05c.54,0,1,0,1.33,0a1.42,1.42,0,0,0,.81-.29,1.36,1.36,0,0,0,.41-.75,6.69,6.69,0,0,0,.16-1.41c0-.6,0-1.36,0-2.28s0-1.7,0-2.31a6.71,6.71,0,0,0-.16-1.42,1.24,1.24,0,0,0-.42-.75,1.48,1.48,0,0,0-.82-.29c-.34,0-.77-.05-1.31-.05h-1.05Z" transform="translate(0 -5.84)"/></g></g><g id="text3818" class="cls-6"><g class="cls-6"><path class="cls-7" d="M233.8,108.36V91.16h11.83V95h-6.7v3.5h5.77v3.8h-5.77v6.1Z" transform="translate(0 -5.84)"/></g></g><g id="text3822" class="cls-6"><g class="cls-6"><path class="cls-7" d="M308.75,108.56a17.88,17.88,0,0,1-3.27-.26,6.47,6.47,0,0,1-2.24-.84,3.92,3.92,0,0,1-1.38-1.6,8.67,8.67,0,0,1-.68-2.53,32.05,32.05,0,0,1,0-7.15,8.51,8.51,0,0,1,.68-2.52,3.81,3.81,0,0,1,1.39-1.6,6.42,6.42,0,0,1,2.24-.84,17.69,17.69,0,0,1,3.26-.26c.6,0,1.26,0,2,.07s1.44.12,2.17.22,1.4.18,2,.28v3.55c-.53-.08-1.08-.14-1.65-.17l-1.59-.1c-.49,0-.88,0-1.18,0-.84,0-1.52,0-2.07,0a3.23,3.23,0,0,0-1.28.29,1.49,1.49,0,0,0-.72.76,4.82,4.82,0,0,0-.3,1.47c0,.64-.06,1.44-.06,2.43s0,1.6,0,2.21a6.09,6.09,0,0,0,.21,1.48,2.14,2.14,0,0,0,.49.87,1.68,1.68,0,0,0,.85.43,7,7,0,0,0,1.31.11h.46l.53,0,.46,0v-3.15h-2V98.18H315V108c-.6.1-1.27.19-2,.27l-2.2.18C310,108.53,309.37,108.56,308.75,108.56Z" transform="translate(0 -5.84)"/></g></g><g id="text3826" class="cls-6"><g class="cls-6"><path class="cls-7" d="M368.8,108.36V91.16H374v6.47h4.28V91.16h5.15v17.2h-5.15v-6.53H374v6.53Z" transform="translate(0 -5.84)"/></g></g><g id="text3830" class="cls-6"><g class="cls-6"><path class="cls-7" d="M435.3,108.36v-3.58c.84,0,1.49,0,1.95-.08a1.66,1.66,0,0,0,1-.37,1.49,1.49,0,0,0,.39-.93,15.35,15.35,0,0,0,.08-1.72V91.16h5.15v9.22c0,1.54,0,2.8-.12,3.79a6.48,6.48,0,0,1-.53,2.35,2.5,2.5,0,0,1-1.34,1.24,8.54,8.54,0,0,1-2.51.49C438.31,108.32,437,108.36,435.3,108.36Z" transform="translate(0 -5.84)"/></g></g><g id="text3834" class="cls-6"><g class="cls-6"><path class="cls-7" d="M503.8,108.36V91.16H509v6.6h.73l4.17-6.6h5.5l-5.5,8.12,5.58,9.08h-5.68l-4.07-6.88H509v6.88Z" transform="translate(0 -5.84)"/></g></g><g id="text3838" class="cls-6"><g class="cls-6"><path class="cls-7" d="M571.3,108.36V91.16h5.15v13.22h6.18v4Z" transform="translate(0 -5.84)"/></g></g><g id="text3858" class="cls-6"><g class="cls-6"><path class="cls-7" d="M64.55,175.86v-3.65l7.1-9.75H64.83v-3.8h13.1v3.52l-7.18,9.9H78v3.78Z" transform="translate(0 -5.84)"/></g></g><g id="text3862" class="cls-6"><g class="cls-6"><path class="cls-7" d="M131.25,175.86l5.23-8.65-5.13-8.55h5.75l2.6,4.72h.2l2.65-4.72h5.55L143,167.13l5.2,8.73H142.4L139.73,171h-.25l-2.68,4.83Z" transform="translate(0 -5.84)"/></g></g><g id="text3866" class="cls-6"><g class="cls-6"><path class="cls-7" d="M207.13,176.06a15.87,15.87,0,0,1-3.29-.28,5.57,5.57,0,0,1-2.15-.87,3.58,3.58,0,0,1-1.25-1.61,9,9,0,0,1-.56-2.5q-.15-1.5-.15-3.54t.15-3.54a8.73,8.73,0,0,1,.56-2.51,3.55,3.55,0,0,1,1.25-1.6,5.73,5.73,0,0,1,2.15-.88,16.68,16.68,0,0,1,3.29-.27c.51,0,1.05,0,1.61,0s1.09.09,1.6.16.95.15,1.31.24v3.55l-1.52-.13-1.07-.06h-.71a14.91,14.91,0,0,0-1.66.07,1.93,1.93,0,0,0-1,.37,1.57,1.57,0,0,0-.54.81,5.57,5.57,0,0,0-.2,1.44c0,.6,0,1.37,0,2.31s0,1.68,0,2.3a5.82,5.82,0,0,0,.2,1.46,1.5,1.5,0,0,0,.54.81,2,2,0,0,0,1,.35,14.55,14.55,0,0,0,1.66.08c.5,0,1.08,0,1.73,0s1.21-.09,1.67-.15v3.62l-1.34.18q-.81.09-1.65.15C208.21,176,207.66,176.06,207.13,176.06Z" transform="translate(0 -5.84)"/></g></g><g id="text3870" class="cls-6"><g class="cls-6"><path class="cls-7" d="M270.9,175.86l-4.8-17.2h5.25l2.9,11.75h.25l2.85-11.75h5.18l-4.8,17.2Z" transform="translate(0 -5.84)"/></g></g><g id="text3874" class="cls-6"><g class="cls-6"><path class="cls-7" d="M335.05,175.86v-17.2H344a7,7,0,0,1,2.71.46,3.37,3.37,0,0,1,1.69,1.43A4.6,4.6,0,0,1,349,163a5.38,5.38,0,0,1-.34,2.05,2.93,2.93,0,0,1-1,1.28,5,5,0,0,1-1.7.72v.1a5.2,5.2,0,0,1,1.72.68,2.72,2.72,0,0,1,1.05,1.26,5.51,5.51,0,0,1,.35,2.19,5.88,5.88,0,0,1-.29,2,3.53,3.53,0,0,1-.88,1.44,3.81,3.81,0,0,1-1.57.89,7.9,7.9,0,0,1-2.33.3Zm5.08-10.33H342a4.38,4.38,0,0,0,1.17-.11.75.75,0,0,0,.54-.46,2.88,2.88,0,0,0,.14-1,3.07,3.07,0,0,0-.13-1.06.7.7,0,0,0-.52-.45,4.51,4.51,0,0,0-1.2-.12h-1.9Zm0,6.68h1.95a3.92,3.92,0,0,0,1.17-.13.76.76,0,0,0,.53-.48,3.66,3.66,0,0,0,.12-1.07,3.2,3.2,0,0,0-.14-1.13.75.75,0,0,0-.52-.49,3.8,3.8,0,0,0-1.16-.13h-1.95Z" transform="translate(0 -5.84)"/></g></g><g id="text3878" class="cls-6"><g class="cls-6"><path class="cls-7" d="M402.55,175.86v-17.2h5.25l4.4,7.85h.15v-7.85h4.93v17.2H412.5l-4.9-9h-.15v9Z" transform="translate(0 -5.84)"/></g></g><g id="text3882" class="cls-6"><g class="cls-6"><path class="cls-7" d="M470.05,175.86v-17.2h7.05l2.63,9.05h.2l2.62-9.05h7v17.2h-4.9V165.48h-.22l-3,10.38H478l-2.95-10.38h-.22v10.38Z" transform="translate(0 -5.84)"/></g></g></g><polygon class="cls-4" points="870.02 85.51 890.01 85.51 890.01 70.59 913.33 90.74 890.01 110.9 890.01 95.98 870.02 95.98 870.02 85.51"/><g id="text3786-2" data-name="text3786"><g class="cls-6"><path class="cls-4" d="M928,108V82.26h13.15a13.19,13.19,0,0,1,4.13.53,4.87,4.87,0,0,1,2.38,1.59,6,6,0,0,1,1.11,2.68,21.16,21.16,0,0,1,.28,3.67,21.89,21.89,0,0,1-.22,3.11,7.42,7.42,0,0,1-.9,2.6,4.73,4.73,0,0,1-2.06,1.82l3.7,9.77h-8l-3.29-10.22,1.91,1a2.07,2.07,0,0,1-.73.28,7.93,7.93,0,0,1-1,0h-2.81V108Zm7.71-14.19h2.55a10.24,10.24,0,0,0,1.63-.1,1.84,1.84,0,0,0,1-.39,1.41,1.41,0,0,0,.41-.9,13.83,13.83,0,0,0,.07-1.61c0-.65,0-1.17,0-1.55a1.54,1.54,0,0,0-.34-.9A1.47,1.47,0,0,0,940,88a10,10,0,0,0-1.76-.12h-2.55Z" transform="translate(0 -5.84)"/><path class="cls-4" d="M953,108V82.26h7.72V108Z" transform="translate(0 -5.84)"/><path class="cls-4" d="M976.39,108.33a26.26,26.26,0,0,1-4.9-.39,9.54,9.54,0,0,1-3.36-1.25,5.83,5.83,0,0,1-2.06-2.4,13.07,13.07,0,0,1-1-3.79,47.94,47.94,0,0,1,0-10.71,12.91,12.91,0,0,1,1-3.78,5.61,5.61,0,0,1,2.08-2.4,9.92,9.92,0,0,1,3.35-1.26,26.14,26.14,0,0,1,4.89-.39c.9,0,1.89,0,3,.11s2.16.19,3.26.32,2.1.28,3,.43v5.32c-.8-.12-1.63-.21-2.48-.26l-2.37-.15c-.74,0-1.33-.07-1.78-.07-1.25,0-2.28,0-3.09.07a5,5,0,0,0-1.93.43,2.29,2.29,0,0,0-1.07,1.14,6.47,6.47,0,0,0-.45,2.21c-.06.95-.09,2.16-.09,3.64,0,1.3,0,2.4,0,3.31a9.22,9.22,0,0,0,.32,2.21,3.21,3.21,0,0,0,.73,1.31,2.4,2.4,0,0,0,1.28.64,9.85,9.85,0,0,0,2,.17l.69,0,.79,0a5,5,0,0,0,.7,0V98h-3v-5.2h9.89v14.76c-.9.15-1.9.28-3,.39s-2.22.21-3.3.28S977.32,108.33,976.39,108.33Z" transform="translate(0 -5.84)"/><path class="cls-4" d="M990.1,108V82.26h7.72V92h6.4v-9.7h7.72V108h-7.72V98.26h-6.4V108Z" transform="translate(0 -5.84)"/><path class="cls-4" d="M1021.46,108V88.22h-6.67v-6h21v6h-6.67V108Z" transform="translate(0 -5.84)"/></g></g><polygon class="cls-1" points="838.99 95.98 819 95.98 819 110.9 795.68 90.74 819 70.59 819 85.51 838.99 85.51 838.99 95.98"/><g id="text3786-3" data-name="text3786"><g class="cls-6"><path class="cls-1" d="M701.8,108V82.26h7.72v19.82h9.25v6Z" transform="translate(0 -5.84)"/><path class="cls-1" d="M721.84,108V82.26h18.47V88H729.52v4.27h9v5.58h-9v4.53h10.79V108Z" transform="translate(0 -5.84)"/><path class="cls-1" d="M744.47,108V82.26h17.72V88h-10V93.2h8.65v5.69h-8.65V108Z" transform="translate(0 -5.84)"/><path class="cls-1" d="M770.73,108V88.22h-6.67v-6h21.05v6h-6.67V108Z" transform="translate(0 -5.84)"/></g></g><polygon class="cls-3" points="849.26 80.59 849.26 60.6 834.34 60.6 854.5 37.28 874.65 60.6 859.73 60.6 859.73 80.59 849.26 80.59"/><g id="text3786-4" data-name="text3786"><g class="cls-6"><path class="cls-3" d="M842.53,31.92a27.34,27.34,0,0,1-5-.38,7.72,7.72,0,0,1-3.11-1.2,4.64,4.64,0,0,1-1.67-2.21,11.9,11.9,0,0,1-.67-3.42c-.1-1.37-.15-3-.15-4.82v-14h7.75V21.28c0,1.12,0,2,.06,2.68a3.56,3.56,0,0,0,.3,1.46,1.17,1.17,0,0,0,.84.6,8.7,8.7,0,0,0,1.65.13,8.09,8.09,0,0,0,1.61-.13,1.31,1.31,0,0,0,.84-.6,3.33,3.33,0,0,0,.34-1.46c0-.67,0-1.56,0-2.68V5.84h7.72V19.89c0,1.85-.05,3.45-.15,4.82a12.25,12.25,0,0,1-.67,3.42,4.73,4.73,0,0,1-1.65,2.21,7.62,7.62,0,0,1-3.09,1.2A27.42,27.42,0,0,1,842.53,31.92Z" transform="translate(0 -5.84)"/><path class="cls-3" d="M857.59,31.62V5.84H870.4a12.62,12.62,0,0,1,4.06.55,4.75,4.75,0,0,1,2.38,1.68,6.47,6.47,0,0,1,1.1,2.79,22.68,22.68,0,0,1,.29,3.82A22.25,22.25,0,0,1,878,18.3a6.86,6.86,0,0,1-1.05,2.81,4.8,4.8,0,0,1-2.37,1.8,11.87,11.87,0,0,1-4.18.61H865.3v8.1Zm7.71-13.68h2.1a12.18,12.18,0,0,0,1.69-.09,1.56,1.56,0,0,0,.91-.43,1.85,1.85,0,0,0,.42-1,13.51,13.51,0,0,0,.09-1.77,13.88,13.88,0,0,0-.09-1.76,1.82,1.82,0,0,0-.4-1,1.52,1.52,0,0,0-.9-.41,11.74,11.74,0,0,0-1.68-.1H865.3Z" transform="translate(0 -5.84)"/></g></g><polygon class="cls-5" points="859.73 111.62 859.73 131.61 874.65 131.61 854.5 154.93 834.34 131.61 849.26 131.61 849.26 111.62 859.73 111.62"/><g id="text3786-5" data-name="text3786"><g class="cls-6"><path class="cls-5" d="M799.47,202.41V176.64h9.29a37,37,0,0,1,5.71.36,8.33,8.33,0,0,1,3.48,1.23,5,5,0,0,1,1.82,2.34,12.61,12.61,0,0,1,.69,3.66c.09,1.46.13,3.22.13,5.3s0,3.84-.13,5.3a12.6,12.6,0,0,1-.69,3.65,5,5,0,0,1-1.82,2.34,8.32,8.32,0,0,1-3.48,1.24,38.52,38.52,0,0,1-5.71.35Zm7.71-5.69h1.58c.8,0,1.46,0,2-.08a2.18,2.18,0,0,0,1.22-.43,2,2,0,0,0,.62-1.12,12.11,12.11,0,0,0,.24-2.12c0-.9.06-2,.06-3.41s0-2.55-.06-3.46a12.38,12.38,0,0,0-.24-2.14,2,2,0,0,0-.64-1.12,2.27,2.27,0,0,0-1.22-.43c-.51,0-1.16-.08-2-.08h-1.58Z" transform="translate(0 -5.84)"/><path class="cls-5" d="M835.5,202.71a29.88,29.88,0,0,1-5.45-.41,8.26,8.26,0,0,1-3.31-1.29,4.93,4.93,0,0,1-1.74-2.42,13,13,0,0,1-.66-3.78c-.08-1.5-.11-3.26-.11-5.28s0-3.79.11-5.29a13,13,0,0,1,.66-3.78,5,5,0,0,1,1.74-2.42,8.41,8.41,0,0,1,3.31-1.29,36.43,36.43,0,0,1,10.9,0,8.46,8.46,0,0,1,3.32,1.29,4.88,4.88,0,0,1,1.72,2.42,14.9,14.9,0,0,1,.68,3.78c.1,1.5.15,3.26.15,5.29s-.05,3.78-.15,5.28a14.81,14.81,0,0,1-.68,3.78,4.84,4.84,0,0,1-1.72,2.42A8.31,8.31,0,0,1,841,202.3,29.81,29.81,0,0,1,835.5,202.71Zm0-5.69a15.54,15.54,0,0,0,1.71-.08,1.74,1.74,0,0,0,1-.43,2.13,2.13,0,0,0,.54-1.14,14.29,14.29,0,0,0,.23-2.21c0-.95,0-2.16,0-3.63s0-2.69,0-3.64a14.29,14.29,0,0,0-.23-2.21,2.17,2.17,0,0,0-.54-1.14,1.74,1.74,0,0,0-1-.43,18,18,0,0,0-3.39,0,1.74,1.74,0,0,0-1.05.43,2.17,2.17,0,0,0-.54,1.14,11.6,11.6,0,0,0-.21,2.21c0,1,0,2.16,0,3.64s0,2.68,0,3.63a11.6,11.6,0,0,0,.21,2.21,2.13,2.13,0,0,0,.54,1.14,1.74,1.74,0,0,0,1.05.43A15.47,15.47,0,0,0,835.5,197Z" transform="translate(0 -5.84)"/><path class="cls-5" d="M853.71,202.41l-5.21-25.77h7.68L859,193.83h.37l3.45-17.19h7.94l3.52,17.19h.34l2.58-17.19h7.68l-5.17,25.77H870l-3.11-14.53h-.33l-3.15,14.53Z" transform="translate(0 -5.84)"/><path class="cls-5" d="M887.46,202.41V176.64h7.87l6.59,11.76h.22V176.64h7.38v25.77h-7.15L895,188.93h-.23v13.48Z" transform="translate(0 -5.84)"/></g></g></svg>
